G04 #@! TF.GenerationSoftware,KiCad,Pcbnew,5.1.4+dfsg1-2*
G04 #@! TF.CreationDate,2019-11-28T13:24:12+01:00*
G04 #@! TF.ProjectId,gordon,676f7264-6f6e-42e6-9b69-6361645f7063,rev?*
G04 #@! TF.SameCoordinates,Original*
G04 #@! TF.FileFunction,Legend,Top*
G04 #@! TF.FilePolarity,Positive*
%FSLAX46Y46*%
G04 Gerber Fmt 4.6, Leading zero omitted, Abs format (unit mm)*
G04 Created by KiCad (PCBNEW 5.1.4+dfsg1-2) date 2019-11-28 13:24:12*
%MOMM*%
%LPD*%
G04 APERTURE LIST*
%ADD10C,0.120000*%
%ADD11C,0.150000*%
%ADD12C,0.010000*%
G04 APERTURE END LIST*
D10*
X131835714Y-116951904D02*
X131454761Y-116951904D01*
X131454761Y-116151904D01*
X132102380Y-116951904D02*
X132102380Y-116418571D01*
X132102380Y-116151904D02*
X132064285Y-116190000D01*
X132102380Y-116228095D01*
X132140476Y-116190000D01*
X132102380Y-116151904D01*
X132102380Y-116228095D01*
X132826190Y-116913809D02*
X132750000Y-116951904D01*
X132597619Y-116951904D01*
X132521428Y-116913809D01*
X132483333Y-116875714D01*
X132445238Y-116799523D01*
X132445238Y-116570952D01*
X132483333Y-116494761D01*
X132521428Y-116456666D01*
X132597619Y-116418571D01*
X132750000Y-116418571D01*
X132826190Y-116456666D01*
X133473809Y-116913809D02*
X133397619Y-116951904D01*
X133245238Y-116951904D01*
X133169047Y-116913809D01*
X133130952Y-116837619D01*
X133130952Y-116532857D01*
X133169047Y-116456666D01*
X133245238Y-116418571D01*
X133397619Y-116418571D01*
X133473809Y-116456666D01*
X133511904Y-116532857D01*
X133511904Y-116609047D01*
X133130952Y-116685238D01*
X133854761Y-116418571D02*
X133854761Y-116951904D01*
X133854761Y-116494761D02*
X133892857Y-116456666D01*
X133969047Y-116418571D01*
X134083333Y-116418571D01*
X134159523Y-116456666D01*
X134197619Y-116532857D01*
X134197619Y-116951904D01*
X134540476Y-116913809D02*
X134616666Y-116951904D01*
X134769047Y-116951904D01*
X134845238Y-116913809D01*
X134883333Y-116837619D01*
X134883333Y-116799523D01*
X134845238Y-116723333D01*
X134769047Y-116685238D01*
X134654761Y-116685238D01*
X134578571Y-116647142D01*
X134540476Y-116570952D01*
X134540476Y-116532857D01*
X134578571Y-116456666D01*
X134654761Y-116418571D01*
X134769047Y-116418571D01*
X134845238Y-116456666D01*
X135530952Y-116913809D02*
X135454761Y-116951904D01*
X135302380Y-116951904D01*
X135226190Y-116913809D01*
X135188095Y-116837619D01*
X135188095Y-116532857D01*
X135226190Y-116456666D01*
X135302380Y-116418571D01*
X135454761Y-116418571D01*
X135530952Y-116456666D01*
X135569047Y-116532857D01*
X135569047Y-116609047D01*
X135188095Y-116685238D01*
X136254761Y-116951904D02*
X136254761Y-116151904D01*
X136254761Y-116913809D02*
X136178571Y-116951904D01*
X136026190Y-116951904D01*
X135950000Y-116913809D01*
X135911904Y-116875714D01*
X135873809Y-116799523D01*
X135873809Y-116570952D01*
X135911904Y-116494761D01*
X135950000Y-116456666D01*
X136026190Y-116418571D01*
X136178571Y-116418571D01*
X136254761Y-116456666D01*
X137588095Y-116418571D02*
X137588095Y-116951904D01*
X137245238Y-116418571D02*
X137245238Y-116837619D01*
X137283333Y-116913809D01*
X137359523Y-116951904D01*
X137473809Y-116951904D01*
X137550000Y-116913809D01*
X137588095Y-116875714D01*
X137969047Y-116418571D02*
X137969047Y-116951904D01*
X137969047Y-116494761D02*
X138007142Y-116456666D01*
X138083333Y-116418571D01*
X138197619Y-116418571D01*
X138273809Y-116456666D01*
X138311904Y-116532857D01*
X138311904Y-116951904D01*
X139035714Y-116951904D02*
X139035714Y-116151904D01*
X139035714Y-116913809D02*
X138959523Y-116951904D01*
X138807142Y-116951904D01*
X138730952Y-116913809D01*
X138692857Y-116875714D01*
X138654761Y-116799523D01*
X138654761Y-116570952D01*
X138692857Y-116494761D01*
X138730952Y-116456666D01*
X138807142Y-116418571D01*
X138959523Y-116418571D01*
X139035714Y-116456666D01*
X139721428Y-116913809D02*
X139645238Y-116951904D01*
X139492857Y-116951904D01*
X139416666Y-116913809D01*
X139378571Y-116837619D01*
X139378571Y-116532857D01*
X139416666Y-116456666D01*
X139492857Y-116418571D01*
X139645238Y-116418571D01*
X139721428Y-116456666D01*
X139759523Y-116532857D01*
X139759523Y-116609047D01*
X139378571Y-116685238D01*
X140102380Y-116951904D02*
X140102380Y-116418571D01*
X140102380Y-116570952D02*
X140140476Y-116494761D01*
X140178571Y-116456666D01*
X140254761Y-116418571D01*
X140330952Y-116418571D01*
X141664285Y-116875714D02*
X141626190Y-116913809D01*
X141511904Y-116951904D01*
X141435714Y-116951904D01*
X141321428Y-116913809D01*
X141245238Y-116837619D01*
X141207142Y-116761428D01*
X141169047Y-116609047D01*
X141169047Y-116494761D01*
X141207142Y-116342380D01*
X141245238Y-116266190D01*
X141321428Y-116190000D01*
X141435714Y-116151904D01*
X141511904Y-116151904D01*
X141626190Y-116190000D01*
X141664285Y-116228095D01*
X142007142Y-116532857D02*
X142273809Y-116532857D01*
X142388095Y-116951904D02*
X142007142Y-116951904D01*
X142007142Y-116151904D01*
X142388095Y-116151904D01*
X143188095Y-116951904D02*
X142921428Y-116570952D01*
X142730952Y-116951904D02*
X142730952Y-116151904D01*
X143035714Y-116151904D01*
X143111904Y-116190000D01*
X143150000Y-116228095D01*
X143188095Y-116304285D01*
X143188095Y-116418571D01*
X143150000Y-116494761D01*
X143111904Y-116532857D01*
X143035714Y-116570952D01*
X142730952Y-116570952D01*
X143530952Y-116951904D02*
X143530952Y-116151904D01*
X143988095Y-116951904D01*
X143988095Y-116151904D01*
X145130952Y-116151904D02*
X145283333Y-116151904D01*
X145359523Y-116190000D01*
X145435714Y-116266190D01*
X145473809Y-116418571D01*
X145473809Y-116685238D01*
X145435714Y-116837619D01*
X145359523Y-116913809D01*
X145283333Y-116951904D01*
X145130952Y-116951904D01*
X145054761Y-116913809D01*
X144978571Y-116837619D01*
X144940476Y-116685238D01*
X144940476Y-116418571D01*
X144978571Y-116266190D01*
X145054761Y-116190000D01*
X145130952Y-116151904D01*
X145816666Y-116951904D02*
X145816666Y-116151904D01*
X145816666Y-116532857D02*
X146273809Y-116532857D01*
X146273809Y-116951904D02*
X146273809Y-116151904D01*
X147035714Y-116951904D02*
X146654761Y-116951904D01*
X146654761Y-116151904D01*
X147835714Y-116418571D02*
X148026190Y-116951904D01*
X148216666Y-116418571D01*
X148940476Y-116951904D02*
X148483333Y-116951904D01*
X148711904Y-116951904D02*
X148711904Y-116151904D01*
X148635714Y-116266190D01*
X148559523Y-116342380D01*
X148483333Y-116380476D01*
X149283333Y-116875714D02*
X149321428Y-116913809D01*
X149283333Y-116951904D01*
X149245238Y-116913809D01*
X149283333Y-116875714D01*
X149283333Y-116951904D01*
X149626190Y-116228095D02*
X149664285Y-116190000D01*
X149740476Y-116151904D01*
X149930952Y-116151904D01*
X150007142Y-116190000D01*
X150045238Y-116228095D01*
X150083333Y-116304285D01*
X150083333Y-116380476D01*
X150045238Y-116494761D01*
X149588095Y-116951904D01*
X150083333Y-116951904D01*
X133188095Y-117738571D02*
X133188095Y-118386190D01*
X133150000Y-118462380D01*
X133111904Y-118500476D01*
X133035714Y-118538571D01*
X132921428Y-118538571D01*
X132845238Y-118500476D01*
X133188095Y-118233809D02*
X133111904Y-118271904D01*
X132959523Y-118271904D01*
X132883333Y-118233809D01*
X132845238Y-118195714D01*
X132807142Y-118119523D01*
X132807142Y-117890952D01*
X132845238Y-117814761D01*
X132883333Y-117776666D01*
X132959523Y-117738571D01*
X133111904Y-117738571D01*
X133188095Y-117776666D01*
X133569047Y-118271904D02*
X133569047Y-117738571D01*
X133569047Y-117471904D02*
X133530952Y-117510000D01*
X133569047Y-117548095D01*
X133607142Y-117510000D01*
X133569047Y-117471904D01*
X133569047Y-117548095D01*
X133835714Y-117738571D02*
X134140476Y-117738571D01*
X133950000Y-117471904D02*
X133950000Y-118157619D01*
X133988095Y-118233809D01*
X134064285Y-118271904D01*
X134140476Y-118271904D01*
X134407142Y-118271904D02*
X134407142Y-117471904D01*
X134750000Y-118271904D02*
X134750000Y-117852857D01*
X134711904Y-117776666D01*
X134635714Y-117738571D01*
X134521428Y-117738571D01*
X134445238Y-117776666D01*
X134407142Y-117814761D01*
X135473809Y-117738571D02*
X135473809Y-118271904D01*
X135130952Y-117738571D02*
X135130952Y-118157619D01*
X135169047Y-118233809D01*
X135245238Y-118271904D01*
X135359523Y-118271904D01*
X135435714Y-118233809D01*
X135473809Y-118195714D01*
X135854761Y-118271904D02*
X135854761Y-117471904D01*
X135854761Y-117776666D02*
X135930952Y-117738571D01*
X136083333Y-117738571D01*
X136159523Y-117776666D01*
X136197619Y-117814761D01*
X136235714Y-117890952D01*
X136235714Y-118119523D01*
X136197619Y-118195714D01*
X136159523Y-118233809D01*
X136083333Y-118271904D01*
X135930952Y-118271904D01*
X135854761Y-118233809D01*
X136578571Y-118195714D02*
X136616666Y-118233809D01*
X136578571Y-118271904D01*
X136540476Y-118233809D01*
X136578571Y-118195714D01*
X136578571Y-118271904D01*
X137302380Y-118233809D02*
X137226190Y-118271904D01*
X137073809Y-118271904D01*
X136997619Y-118233809D01*
X136959523Y-118195714D01*
X136921428Y-118119523D01*
X136921428Y-117890952D01*
X136959523Y-117814761D01*
X136997619Y-117776666D01*
X137073809Y-117738571D01*
X137226190Y-117738571D01*
X137302380Y-117776666D01*
X137759523Y-118271904D02*
X137683333Y-118233809D01*
X137645238Y-118195714D01*
X137607142Y-118119523D01*
X137607142Y-117890952D01*
X137645238Y-117814761D01*
X137683333Y-117776666D01*
X137759523Y-117738571D01*
X137873809Y-117738571D01*
X137950000Y-117776666D01*
X137988095Y-117814761D01*
X138026190Y-117890952D01*
X138026190Y-118119523D01*
X137988095Y-118195714D01*
X137950000Y-118233809D01*
X137873809Y-118271904D01*
X137759523Y-118271904D01*
X138369047Y-118271904D02*
X138369047Y-117738571D01*
X138369047Y-117814761D02*
X138407142Y-117776666D01*
X138483333Y-117738571D01*
X138597619Y-117738571D01*
X138673809Y-117776666D01*
X138711904Y-117852857D01*
X138711904Y-118271904D01*
X138711904Y-117852857D02*
X138750000Y-117776666D01*
X138826190Y-117738571D01*
X138940476Y-117738571D01*
X139016666Y-117776666D01*
X139054761Y-117852857D01*
X139054761Y-118271904D01*
X140007142Y-117433809D02*
X139321428Y-118462380D01*
X140616666Y-118271904D02*
X140616666Y-117852857D01*
X140578571Y-117776666D01*
X140502380Y-117738571D01*
X140350000Y-117738571D01*
X140273809Y-117776666D01*
X140616666Y-118233809D02*
X140540476Y-118271904D01*
X140350000Y-118271904D01*
X140273809Y-118233809D01*
X140235714Y-118157619D01*
X140235714Y-118081428D01*
X140273809Y-118005238D01*
X140350000Y-117967142D01*
X140540476Y-117967142D01*
X140616666Y-117929047D01*
X140997619Y-117967142D02*
X141607142Y-117967142D01*
X141911904Y-117738571D02*
X142064285Y-118271904D01*
X142216666Y-117890952D01*
X142369047Y-118271904D01*
X142521428Y-117738571D01*
X143169047Y-118271904D02*
X143169047Y-117852857D01*
X143130952Y-117776666D01*
X143054761Y-117738571D01*
X142902380Y-117738571D01*
X142826190Y-117776666D01*
X143169047Y-118233809D02*
X143092857Y-118271904D01*
X142902380Y-118271904D01*
X142826190Y-118233809D01*
X142788095Y-118157619D01*
X142788095Y-118081428D01*
X142826190Y-118005238D01*
X142902380Y-117967142D01*
X143092857Y-117967142D01*
X143169047Y-117929047D01*
X143550000Y-118271904D02*
X143550000Y-117738571D01*
X143550000Y-117471904D02*
X143511904Y-117510000D01*
X143550000Y-117548095D01*
X143588095Y-117510000D01*
X143550000Y-117471904D01*
X143550000Y-117548095D01*
X144502380Y-117433809D02*
X143816666Y-118462380D01*
X144654761Y-117738571D02*
X144959523Y-117738571D01*
X144769047Y-117471904D02*
X144769047Y-118157619D01*
X144807142Y-118233809D01*
X144883333Y-118271904D01*
X144959523Y-118271904D01*
X145226190Y-118271904D02*
X145226190Y-117471904D01*
X145569047Y-118271904D02*
X145569047Y-117852857D01*
X145530952Y-117776666D01*
X145454761Y-117738571D01*
X145340476Y-117738571D01*
X145264285Y-117776666D01*
X145226190Y-117814761D01*
X146254761Y-118233809D02*
X146178571Y-118271904D01*
X146026190Y-118271904D01*
X145950000Y-118233809D01*
X145911904Y-118157619D01*
X145911904Y-117852857D01*
X145950000Y-117776666D01*
X146026190Y-117738571D01*
X146178571Y-117738571D01*
X146254761Y-117776666D01*
X146292857Y-117852857D01*
X146292857Y-117929047D01*
X145911904Y-118005238D01*
X146635714Y-118271904D02*
X146635714Y-117738571D01*
X146635714Y-117890952D02*
X146673809Y-117814761D01*
X146711904Y-117776666D01*
X146788095Y-117738571D01*
X146864285Y-117738571D01*
X147245238Y-118271904D02*
X147169047Y-118233809D01*
X147130952Y-118195714D01*
X147092857Y-118119523D01*
X147092857Y-117890952D01*
X147130952Y-117814761D01*
X147169047Y-117776666D01*
X147245238Y-117738571D01*
X147359523Y-117738571D01*
X147435714Y-117776666D01*
X147473809Y-117814761D01*
X147511904Y-117890952D01*
X147511904Y-118119523D01*
X147473809Y-118195714D01*
X147435714Y-118233809D01*
X147359523Y-118271904D01*
X147245238Y-118271904D01*
X147969047Y-118271904D02*
X147892857Y-118233809D01*
X147854761Y-118195714D01*
X147816666Y-118119523D01*
X147816666Y-117890952D01*
X147854761Y-117814761D01*
X147892857Y-117776666D01*
X147969047Y-117738571D01*
X148083333Y-117738571D01*
X148159523Y-117776666D01*
X148197619Y-117814761D01*
X148235714Y-117890952D01*
X148235714Y-118119523D01*
X148197619Y-118195714D01*
X148159523Y-118233809D01*
X148083333Y-118271904D01*
X147969047Y-118271904D01*
X148464285Y-117738571D02*
X148769047Y-117738571D01*
X148578571Y-118271904D02*
X148578571Y-117586190D01*
X148616666Y-117510000D01*
X148692857Y-117471904D01*
X148769047Y-117471904D01*
D11*
X133011904Y-113535714D02*
X133011904Y-114345238D01*
X132964285Y-114440476D01*
X132916666Y-114488095D01*
X132821428Y-114535714D01*
X132678571Y-114535714D01*
X132583333Y-114488095D01*
X133011904Y-114154761D02*
X132916666Y-114202380D01*
X132726190Y-114202380D01*
X132630952Y-114154761D01*
X132583333Y-114107142D01*
X132535714Y-114011904D01*
X132535714Y-113726190D01*
X132583333Y-113630952D01*
X132630952Y-113583333D01*
X132726190Y-113535714D01*
X132916666Y-113535714D01*
X133011904Y-113583333D01*
X133630952Y-114202380D02*
X133535714Y-114154761D01*
X133488095Y-114107142D01*
X133440476Y-114011904D01*
X133440476Y-113726190D01*
X133488095Y-113630952D01*
X133535714Y-113583333D01*
X133630952Y-113535714D01*
X133773809Y-113535714D01*
X133869047Y-113583333D01*
X133916666Y-113630952D01*
X133964285Y-113726190D01*
X133964285Y-114011904D01*
X133916666Y-114107142D01*
X133869047Y-114154761D01*
X133773809Y-114202380D01*
X133630952Y-114202380D01*
X134392857Y-114202380D02*
X134392857Y-113535714D01*
X134392857Y-113726190D02*
X134440476Y-113630952D01*
X134488095Y-113583333D01*
X134583333Y-113535714D01*
X134678571Y-113535714D01*
X135440476Y-114202380D02*
X135440476Y-113202380D01*
X135440476Y-114154761D02*
X135345238Y-114202380D01*
X135154761Y-114202380D01*
X135059523Y-114154761D01*
X135011904Y-114107142D01*
X134964285Y-114011904D01*
X134964285Y-113726190D01*
X135011904Y-113630952D01*
X135059523Y-113583333D01*
X135154761Y-113535714D01*
X135345238Y-113535714D01*
X135440476Y-113583333D01*
X136059523Y-114202380D02*
X135964285Y-114154761D01*
X135916666Y-114107142D01*
X135869047Y-114011904D01*
X135869047Y-113726190D01*
X135916666Y-113630952D01*
X135964285Y-113583333D01*
X136059523Y-113535714D01*
X136202380Y-113535714D01*
X136297619Y-113583333D01*
X136345238Y-113630952D01*
X136392857Y-113726190D01*
X136392857Y-114011904D01*
X136345238Y-114107142D01*
X136297619Y-114154761D01*
X136202380Y-114202380D01*
X136059523Y-114202380D01*
X136821428Y-113535714D02*
X136821428Y-114202380D01*
X136821428Y-113630952D02*
X136869047Y-113583333D01*
X136964285Y-113535714D01*
X137107142Y-113535714D01*
X137202380Y-113583333D01*
X137250000Y-113678571D01*
X137250000Y-114202380D01*
X138392857Y-113535714D02*
X138630952Y-114202380D01*
X138869047Y-113535714D01*
X139773809Y-114202380D02*
X139202380Y-114202380D01*
X139488095Y-114202380D02*
X139488095Y-113202380D01*
X139392857Y-113345238D01*
X139297619Y-113440476D01*
X139202380Y-113488095D01*
X140202380Y-114107142D02*
X140250000Y-114154761D01*
X140202380Y-114202380D01*
X140154761Y-114154761D01*
X140202380Y-114107142D01*
X140202380Y-114202380D01*
X140869047Y-113202380D02*
X140964285Y-113202380D01*
X141059523Y-113250000D01*
X141107142Y-113297619D01*
X141154761Y-113392857D01*
X141202380Y-113583333D01*
X141202380Y-113821428D01*
X141154761Y-114011904D01*
X141107142Y-114107142D01*
X141059523Y-114154761D01*
X140964285Y-114202380D01*
X140869047Y-114202380D01*
X140773809Y-114154761D01*
X140726190Y-114107142D01*
X140678571Y-114011904D01*
X140630952Y-113821428D01*
X140630952Y-113583333D01*
X140678571Y-113392857D01*
X140726190Y-113297619D01*
X140773809Y-113250000D01*
X140869047Y-113202380D01*
X142392857Y-114202380D02*
X142392857Y-113202380D01*
X142392857Y-113583333D02*
X142488095Y-113535714D01*
X142678571Y-113535714D01*
X142773809Y-113583333D01*
X142821428Y-113630952D01*
X142869047Y-113726190D01*
X142869047Y-114011904D01*
X142821428Y-114107142D01*
X142773809Y-114154761D01*
X142678571Y-114202380D01*
X142488095Y-114202380D01*
X142392857Y-114154761D01*
X143202380Y-113535714D02*
X143440476Y-114202380D01*
X143678571Y-113535714D02*
X143440476Y-114202380D01*
X143345238Y-114440476D01*
X143297619Y-114488095D01*
X143202380Y-114535714D01*
X145250000Y-114202380D02*
X145250000Y-113678571D01*
X145202380Y-113583333D01*
X145107142Y-113535714D01*
X144916666Y-113535714D01*
X144821428Y-113583333D01*
X145250000Y-114154761D02*
X145154761Y-114202380D01*
X144916666Y-114202380D01*
X144821428Y-114154761D01*
X144773809Y-114059523D01*
X144773809Y-113964285D01*
X144821428Y-113869047D01*
X144916666Y-113821428D01*
X145154761Y-113821428D01*
X145250000Y-113773809D01*
X145726190Y-113821428D02*
X146488095Y-113821428D01*
X146869047Y-113535714D02*
X147059523Y-114202380D01*
X147250000Y-113726190D01*
X147440476Y-114202380D01*
X147630952Y-113535714D01*
X148440476Y-114202380D02*
X148440476Y-113678571D01*
X148392857Y-113583333D01*
X148297619Y-113535714D01*
X148107142Y-113535714D01*
X148011904Y-113583333D01*
X148440476Y-114154761D02*
X148345238Y-114202380D01*
X148107142Y-114202380D01*
X148011904Y-114154761D01*
X147964285Y-114059523D01*
X147964285Y-113964285D01*
X148011904Y-113869047D01*
X148107142Y-113821428D01*
X148345238Y-113821428D01*
X148440476Y-113773809D01*
X148916666Y-114202380D02*
X148916666Y-113535714D01*
X148916666Y-113202380D02*
X148869047Y-113250000D01*
X148916666Y-113297619D01*
X148964285Y-113250000D01*
X148916666Y-113202380D01*
X148916666Y-113297619D01*
D10*
X105150000Y-77545000D02*
X105150000Y-75005000D01*
X108450000Y-65615000D02*
X108450000Y-67875000D01*
X106170000Y-65615000D02*
X106170000Y-67475000D01*
X129270000Y-65615000D02*
X106170000Y-65615000D01*
X129270000Y-119315000D02*
X129270000Y-65615000D01*
X106170000Y-119315000D02*
X129270000Y-119315000D01*
X106170000Y-72375000D02*
X106170000Y-119315000D01*
X107800000Y-69925000D02*
G75*
G03X107800000Y-69925000I-900000J0D01*
G01*
X109450000Y-69925000D02*
G75*
G03X109450000Y-69925000I-2550000J0D01*
G01*
D12*
G36*
X97153910Y-70567348D02*
G01*
X97232454Y-70567778D01*
X97289298Y-70568942D01*
X97328105Y-70571207D01*
X97352538Y-70574940D01*
X97366262Y-70580506D01*
X97372940Y-70588273D01*
X97376236Y-70598605D01*
X97376556Y-70599943D01*
X97381562Y-70624079D01*
X97390829Y-70671701D01*
X97403392Y-70737741D01*
X97418287Y-70817128D01*
X97434551Y-70904796D01*
X97435119Y-70907875D01*
X97451410Y-70993789D01*
X97466652Y-71069696D01*
X97479861Y-71131045D01*
X97490054Y-71173282D01*
X97496248Y-71191855D01*
X97496543Y-71192184D01*
X97514788Y-71201253D01*
X97552405Y-71216367D01*
X97601271Y-71234262D01*
X97601543Y-71234358D01*
X97663093Y-71257493D01*
X97735657Y-71286965D01*
X97804057Y-71316597D01*
X97807294Y-71318062D01*
X97918702Y-71368626D01*
X98165399Y-71200160D01*
X98241077Y-71148803D01*
X98309631Y-71102889D01*
X98367088Y-71065030D01*
X98409476Y-71037837D01*
X98432825Y-71023921D01*
X98435042Y-71022889D01*
X98452010Y-71027484D01*
X98483701Y-71049655D01*
X98531352Y-71090447D01*
X98596198Y-71150905D01*
X98662397Y-71215227D01*
X98726214Y-71278612D01*
X98783329Y-71336451D01*
X98830305Y-71385175D01*
X98863703Y-71421210D01*
X98880085Y-71440984D01*
X98880694Y-71442002D01*
X98882505Y-71455572D01*
X98875683Y-71477733D01*
X98858540Y-71511478D01*
X98829393Y-71559800D01*
X98786555Y-71625692D01*
X98729448Y-71710517D01*
X98678766Y-71785177D01*
X98633461Y-71852140D01*
X98596150Y-71907516D01*
X98569452Y-71947420D01*
X98555985Y-71967962D01*
X98555137Y-71969356D01*
X98556781Y-71989038D01*
X98569245Y-72027293D01*
X98590048Y-72076889D01*
X98597462Y-72092728D01*
X98629814Y-72163290D01*
X98664328Y-72243353D01*
X98692365Y-72312629D01*
X98712568Y-72364045D01*
X98728615Y-72403119D01*
X98737888Y-72423541D01*
X98739041Y-72425114D01*
X98756096Y-72427721D01*
X98796298Y-72434863D01*
X98854302Y-72445523D01*
X98924763Y-72458685D01*
X99002335Y-72473333D01*
X99081672Y-72488449D01*
X99157431Y-72503018D01*
X99224264Y-72516022D01*
X99276828Y-72526445D01*
X99309776Y-72533270D01*
X99317857Y-72535199D01*
X99326205Y-72539962D01*
X99332506Y-72550718D01*
X99337045Y-72571098D01*
X99340104Y-72604734D01*
X99341967Y-72655255D01*
X99342918Y-72726292D01*
X99343240Y-72821476D01*
X99343257Y-72860492D01*
X99343257Y-73177799D01*
X99267057Y-73192839D01*
X99224663Y-73200995D01*
X99161400Y-73212899D01*
X99084962Y-73227116D01*
X99003043Y-73242210D01*
X98980400Y-73246355D01*
X98904806Y-73261053D01*
X98838953Y-73275505D01*
X98788366Y-73288375D01*
X98758574Y-73298322D01*
X98753612Y-73301287D01*
X98741426Y-73322283D01*
X98723953Y-73362967D01*
X98704577Y-73415322D01*
X98700734Y-73426600D01*
X98675339Y-73496523D01*
X98643817Y-73575418D01*
X98612969Y-73646266D01*
X98612817Y-73646595D01*
X98561447Y-73757733D01*
X98730399Y-74006253D01*
X98899352Y-74254772D01*
X98682429Y-74472058D01*
X98616819Y-74536726D01*
X98556979Y-74593733D01*
X98506267Y-74640033D01*
X98468046Y-74672584D01*
X98445675Y-74688343D01*
X98442466Y-74689343D01*
X98423626Y-74681469D01*
X98385180Y-74659578D01*
X98331330Y-74626267D01*
X98266276Y-74584131D01*
X98195940Y-74536943D01*
X98124555Y-74488810D01*
X98060908Y-74446928D01*
X98009041Y-74413871D01*
X97972995Y-74392218D01*
X97956867Y-74384543D01*
X97937189Y-74391037D01*
X97899875Y-74408150D01*
X97852621Y-74432326D01*
X97847612Y-74435013D01*
X97783977Y-74466927D01*
X97740341Y-74482579D01*
X97713202Y-74482745D01*
X97699057Y-74468204D01*
X97698975Y-74468000D01*
X97691905Y-74450779D01*
X97675042Y-74409899D01*
X97649695Y-74348525D01*
X97617171Y-74269819D01*
X97578778Y-74176947D01*
X97535822Y-74073072D01*
X97494222Y-73972502D01*
X97448504Y-73861516D01*
X97406526Y-73758703D01*
X97369548Y-73667215D01*
X97338827Y-73590201D01*
X97315622Y-73530815D01*
X97301190Y-73492209D01*
X97296743Y-73477800D01*
X97307896Y-73461272D01*
X97337069Y-73434930D01*
X97375971Y-73405887D01*
X97486757Y-73314039D01*
X97573351Y-73208759D01*
X97634716Y-73092266D01*
X97669815Y-72966776D01*
X97677608Y-72834507D01*
X97671943Y-72773457D01*
X97641078Y-72646795D01*
X97587920Y-72534941D01*
X97515767Y-72439001D01*
X97427917Y-72360076D01*
X97327665Y-72299270D01*
X97218310Y-72257687D01*
X97103147Y-72236428D01*
X96985475Y-72236599D01*
X96868590Y-72259301D01*
X96755789Y-72305638D01*
X96650369Y-72376713D01*
X96606368Y-72416911D01*
X96521979Y-72520129D01*
X96463222Y-72632925D01*
X96429704Y-72752010D01*
X96421035Y-72874095D01*
X96436823Y-72995893D01*
X96476678Y-73114116D01*
X96540207Y-73225475D01*
X96627021Y-73326684D01*
X96724029Y-73405887D01*
X96764437Y-73436162D01*
X96792982Y-73462219D01*
X96803257Y-73477825D01*
X96797877Y-73494843D01*
X96782575Y-73535500D01*
X96758612Y-73596642D01*
X96727244Y-73675119D01*
X96689732Y-73767780D01*
X96647333Y-73871472D01*
X96605663Y-73972526D01*
X96559690Y-74083607D01*
X96517107Y-74186541D01*
X96479221Y-74278165D01*
X96447340Y-74355316D01*
X96422771Y-74414831D01*
X96406820Y-74453544D01*
X96400910Y-74468000D01*
X96386948Y-74482685D01*
X96359940Y-74482642D01*
X96316413Y-74467099D01*
X96252890Y-74435284D01*
X96252388Y-74435013D01*
X96204560Y-74410323D01*
X96165897Y-74392338D01*
X96144095Y-74384614D01*
X96143133Y-74384543D01*
X96126721Y-74392378D01*
X96090487Y-74414165D01*
X96038474Y-74447328D01*
X95974725Y-74489291D01*
X95904060Y-74536943D01*
X95832116Y-74585191D01*
X95767274Y-74627151D01*
X95713735Y-74660227D01*
X95675697Y-74681821D01*
X95657533Y-74689343D01*
X95640808Y-74679457D01*
X95607180Y-74651826D01*
X95560010Y-74609495D01*
X95502658Y-74555505D01*
X95438484Y-74492899D01*
X95417497Y-74471983D01*
X95200499Y-74254623D01*
X95365668Y-74012220D01*
X95415864Y-73937781D01*
X95459919Y-73870972D01*
X95495362Y-73815665D01*
X95519719Y-73775729D01*
X95530522Y-73755036D01*
X95530838Y-73753563D01*
X95525143Y-73734058D01*
X95509826Y-73694822D01*
X95487537Y-73642430D01*
X95471893Y-73607355D01*
X95442641Y-73540201D01*
X95415094Y-73472358D01*
X95393737Y-73415034D01*
X95387935Y-73397572D01*
X95371452Y-73350938D01*
X95355340Y-73314905D01*
X95346490Y-73301287D01*
X95326960Y-73292952D01*
X95284334Y-73281137D01*
X95224145Y-73267181D01*
X95151922Y-73252422D01*
X95119600Y-73246355D01*
X95037522Y-73231273D01*
X94958795Y-73216669D01*
X94891109Y-73203980D01*
X94842160Y-73194642D01*
X94832943Y-73192839D01*
X94756743Y-73177799D01*
X94756743Y-72860492D01*
X94756914Y-72756154D01*
X94757616Y-72677213D01*
X94759134Y-72620038D01*
X94761749Y-72580999D01*
X94765746Y-72556465D01*
X94771409Y-72542805D01*
X94779020Y-72536389D01*
X94782143Y-72535199D01*
X94800978Y-72530980D01*
X94842588Y-72522562D01*
X94901630Y-72510961D01*
X94972757Y-72497195D01*
X95050625Y-72482280D01*
X95129887Y-72467232D01*
X95205198Y-72453069D01*
X95271213Y-72440806D01*
X95322587Y-72431461D01*
X95353975Y-72426050D01*
X95360959Y-72425114D01*
X95367285Y-72412596D01*
X95381290Y-72379246D01*
X95400355Y-72331377D01*
X95407634Y-72312629D01*
X95436996Y-72240195D01*
X95471571Y-72160170D01*
X95502537Y-72092728D01*
X95525323Y-72041159D01*
X95540482Y-71998785D01*
X95545542Y-71972834D01*
X95544736Y-71969356D01*
X95534041Y-71952936D01*
X95509620Y-71916417D01*
X95474095Y-71863687D01*
X95430087Y-71798635D01*
X95380217Y-71725151D01*
X95370356Y-71710645D01*
X95312492Y-71624704D01*
X95269956Y-71559261D01*
X95241054Y-71511304D01*
X95224090Y-71477820D01*
X95217367Y-71455795D01*
X95219190Y-71442217D01*
X95219236Y-71442131D01*
X95233586Y-71424297D01*
X95265323Y-71389817D01*
X95311010Y-71342268D01*
X95367204Y-71285222D01*
X95430468Y-71222255D01*
X95437602Y-71215227D01*
X95517330Y-71138020D01*
X95578857Y-71081330D01*
X95623421Y-71044110D01*
X95652257Y-71025315D01*
X95664958Y-71022889D01*
X95683494Y-71033471D01*
X95721961Y-71057916D01*
X95776386Y-71093612D01*
X95842798Y-71137947D01*
X95917225Y-71188311D01*
X95934601Y-71200160D01*
X96181297Y-71368626D01*
X96292706Y-71318062D01*
X96360457Y-71288595D01*
X96433183Y-71258959D01*
X96495703Y-71235330D01*
X96498457Y-71234358D01*
X96547360Y-71216457D01*
X96585057Y-71201320D01*
X96603425Y-71192210D01*
X96603456Y-71192184D01*
X96609285Y-71175717D01*
X96619192Y-71135219D01*
X96632195Y-71075242D01*
X96647309Y-71000340D01*
X96663552Y-70915064D01*
X96664881Y-70907875D01*
X96681175Y-70820014D01*
X96696133Y-70740260D01*
X96708791Y-70673681D01*
X96718186Y-70625347D01*
X96723354Y-70600325D01*
X96723444Y-70599943D01*
X96726589Y-70589299D01*
X96732704Y-70581262D01*
X96745453Y-70575467D01*
X96768500Y-70571547D01*
X96805509Y-70569135D01*
X96860144Y-70567865D01*
X96936067Y-70567371D01*
X97036944Y-70567286D01*
X97050000Y-70567286D01*
X97153910Y-70567348D01*
X97153910Y-70567348D01*
G37*
X97153910Y-70567348D02*
X97232454Y-70567778D01*
X97289298Y-70568942D01*
X97328105Y-70571207D01*
X97352538Y-70574940D01*
X97366262Y-70580506D01*
X97372940Y-70588273D01*
X97376236Y-70598605D01*
X97376556Y-70599943D01*
X97381562Y-70624079D01*
X97390829Y-70671701D01*
X97403392Y-70737741D01*
X97418287Y-70817128D01*
X97434551Y-70904796D01*
X97435119Y-70907875D01*
X97451410Y-70993789D01*
X97466652Y-71069696D01*
X97479861Y-71131045D01*
X97490054Y-71173282D01*
X97496248Y-71191855D01*
X97496543Y-71192184D01*
X97514788Y-71201253D01*
X97552405Y-71216367D01*
X97601271Y-71234262D01*
X97601543Y-71234358D01*
X97663093Y-71257493D01*
X97735657Y-71286965D01*
X97804057Y-71316597D01*
X97807294Y-71318062D01*
X97918702Y-71368626D01*
X98165399Y-71200160D01*
X98241077Y-71148803D01*
X98309631Y-71102889D01*
X98367088Y-71065030D01*
X98409476Y-71037837D01*
X98432825Y-71023921D01*
X98435042Y-71022889D01*
X98452010Y-71027484D01*
X98483701Y-71049655D01*
X98531352Y-71090447D01*
X98596198Y-71150905D01*
X98662397Y-71215227D01*
X98726214Y-71278612D01*
X98783329Y-71336451D01*
X98830305Y-71385175D01*
X98863703Y-71421210D01*
X98880085Y-71440984D01*
X98880694Y-71442002D01*
X98882505Y-71455572D01*
X98875683Y-71477733D01*
X98858540Y-71511478D01*
X98829393Y-71559800D01*
X98786555Y-71625692D01*
X98729448Y-71710517D01*
X98678766Y-71785177D01*
X98633461Y-71852140D01*
X98596150Y-71907516D01*
X98569452Y-71947420D01*
X98555985Y-71967962D01*
X98555137Y-71969356D01*
X98556781Y-71989038D01*
X98569245Y-72027293D01*
X98590048Y-72076889D01*
X98597462Y-72092728D01*
X98629814Y-72163290D01*
X98664328Y-72243353D01*
X98692365Y-72312629D01*
X98712568Y-72364045D01*
X98728615Y-72403119D01*
X98737888Y-72423541D01*
X98739041Y-72425114D01*
X98756096Y-72427721D01*
X98796298Y-72434863D01*
X98854302Y-72445523D01*
X98924763Y-72458685D01*
X99002335Y-72473333D01*
X99081672Y-72488449D01*
X99157431Y-72503018D01*
X99224264Y-72516022D01*
X99276828Y-72526445D01*
X99309776Y-72533270D01*
X99317857Y-72535199D01*
X99326205Y-72539962D01*
X99332506Y-72550718D01*
X99337045Y-72571098D01*
X99340104Y-72604734D01*
X99341967Y-72655255D01*
X99342918Y-72726292D01*
X99343240Y-72821476D01*
X99343257Y-72860492D01*
X99343257Y-73177799D01*
X99267057Y-73192839D01*
X99224663Y-73200995D01*
X99161400Y-73212899D01*
X99084962Y-73227116D01*
X99003043Y-73242210D01*
X98980400Y-73246355D01*
X98904806Y-73261053D01*
X98838953Y-73275505D01*
X98788366Y-73288375D01*
X98758574Y-73298322D01*
X98753612Y-73301287D01*
X98741426Y-73322283D01*
X98723953Y-73362967D01*
X98704577Y-73415322D01*
X98700734Y-73426600D01*
X98675339Y-73496523D01*
X98643817Y-73575418D01*
X98612969Y-73646266D01*
X98612817Y-73646595D01*
X98561447Y-73757733D01*
X98730399Y-74006253D01*
X98899352Y-74254772D01*
X98682429Y-74472058D01*
X98616819Y-74536726D01*
X98556979Y-74593733D01*
X98506267Y-74640033D01*
X98468046Y-74672584D01*
X98445675Y-74688343D01*
X98442466Y-74689343D01*
X98423626Y-74681469D01*
X98385180Y-74659578D01*
X98331330Y-74626267D01*
X98266276Y-74584131D01*
X98195940Y-74536943D01*
X98124555Y-74488810D01*
X98060908Y-74446928D01*
X98009041Y-74413871D01*
X97972995Y-74392218D01*
X97956867Y-74384543D01*
X97937189Y-74391037D01*
X97899875Y-74408150D01*
X97852621Y-74432326D01*
X97847612Y-74435013D01*
X97783977Y-74466927D01*
X97740341Y-74482579D01*
X97713202Y-74482745D01*
X97699057Y-74468204D01*
X97698975Y-74468000D01*
X97691905Y-74450779D01*
X97675042Y-74409899D01*
X97649695Y-74348525D01*
X97617171Y-74269819D01*
X97578778Y-74176947D01*
X97535822Y-74073072D01*
X97494222Y-73972502D01*
X97448504Y-73861516D01*
X97406526Y-73758703D01*
X97369548Y-73667215D01*
X97338827Y-73590201D01*
X97315622Y-73530815D01*
X97301190Y-73492209D01*
X97296743Y-73477800D01*
X97307896Y-73461272D01*
X97337069Y-73434930D01*
X97375971Y-73405887D01*
X97486757Y-73314039D01*
X97573351Y-73208759D01*
X97634716Y-73092266D01*
X97669815Y-72966776D01*
X97677608Y-72834507D01*
X97671943Y-72773457D01*
X97641078Y-72646795D01*
X97587920Y-72534941D01*
X97515767Y-72439001D01*
X97427917Y-72360076D01*
X97327665Y-72299270D01*
X97218310Y-72257687D01*
X97103147Y-72236428D01*
X96985475Y-72236599D01*
X96868590Y-72259301D01*
X96755789Y-72305638D01*
X96650369Y-72376713D01*
X96606368Y-72416911D01*
X96521979Y-72520129D01*
X96463222Y-72632925D01*
X96429704Y-72752010D01*
X96421035Y-72874095D01*
X96436823Y-72995893D01*
X96476678Y-73114116D01*
X96540207Y-73225475D01*
X96627021Y-73326684D01*
X96724029Y-73405887D01*
X96764437Y-73436162D01*
X96792982Y-73462219D01*
X96803257Y-73477825D01*
X96797877Y-73494843D01*
X96782575Y-73535500D01*
X96758612Y-73596642D01*
X96727244Y-73675119D01*
X96689732Y-73767780D01*
X96647333Y-73871472D01*
X96605663Y-73972526D01*
X96559690Y-74083607D01*
X96517107Y-74186541D01*
X96479221Y-74278165D01*
X96447340Y-74355316D01*
X96422771Y-74414831D01*
X96406820Y-74453544D01*
X96400910Y-74468000D01*
X96386948Y-74482685D01*
X96359940Y-74482642D01*
X96316413Y-74467099D01*
X96252890Y-74435284D01*
X96252388Y-74435013D01*
X96204560Y-74410323D01*
X96165897Y-74392338D01*
X96144095Y-74384614D01*
X96143133Y-74384543D01*
X96126721Y-74392378D01*
X96090487Y-74414165D01*
X96038474Y-74447328D01*
X95974725Y-74489291D01*
X95904060Y-74536943D01*
X95832116Y-74585191D01*
X95767274Y-74627151D01*
X95713735Y-74660227D01*
X95675697Y-74681821D01*
X95657533Y-74689343D01*
X95640808Y-74679457D01*
X95607180Y-74651826D01*
X95560010Y-74609495D01*
X95502658Y-74555505D01*
X95438484Y-74492899D01*
X95417497Y-74471983D01*
X95200499Y-74254623D01*
X95365668Y-74012220D01*
X95415864Y-73937781D01*
X95459919Y-73870972D01*
X95495362Y-73815665D01*
X95519719Y-73775729D01*
X95530522Y-73755036D01*
X95530838Y-73753563D01*
X95525143Y-73734058D01*
X95509826Y-73694822D01*
X95487537Y-73642430D01*
X95471893Y-73607355D01*
X95442641Y-73540201D01*
X95415094Y-73472358D01*
X95393737Y-73415034D01*
X95387935Y-73397572D01*
X95371452Y-73350938D01*
X95355340Y-73314905D01*
X95346490Y-73301287D01*
X95326960Y-73292952D01*
X95284334Y-73281137D01*
X95224145Y-73267181D01*
X95151922Y-73252422D01*
X95119600Y-73246355D01*
X95037522Y-73231273D01*
X94958795Y-73216669D01*
X94891109Y-73203980D01*
X94842160Y-73194642D01*
X94832943Y-73192839D01*
X94756743Y-73177799D01*
X94756743Y-72860492D01*
X94756914Y-72756154D01*
X94757616Y-72677213D01*
X94759134Y-72620038D01*
X94761749Y-72580999D01*
X94765746Y-72556465D01*
X94771409Y-72542805D01*
X94779020Y-72536389D01*
X94782143Y-72535199D01*
X94800978Y-72530980D01*
X94842588Y-72522562D01*
X94901630Y-72510961D01*
X94972757Y-72497195D01*
X95050625Y-72482280D01*
X95129887Y-72467232D01*
X95205198Y-72453069D01*
X95271213Y-72440806D01*
X95322587Y-72431461D01*
X95353975Y-72426050D01*
X95360959Y-72425114D01*
X95367285Y-72412596D01*
X95381290Y-72379246D01*
X95400355Y-72331377D01*
X95407634Y-72312629D01*
X95436996Y-72240195D01*
X95471571Y-72160170D01*
X95502537Y-72092728D01*
X95525323Y-72041159D01*
X95540482Y-71998785D01*
X95545542Y-71972834D01*
X95544736Y-71969356D01*
X95534041Y-71952936D01*
X95509620Y-71916417D01*
X95474095Y-71863687D01*
X95430087Y-71798635D01*
X95380217Y-71725151D01*
X95370356Y-71710645D01*
X95312492Y-71624704D01*
X95269956Y-71559261D01*
X95241054Y-71511304D01*
X95224090Y-71477820D01*
X95217367Y-71455795D01*
X95219190Y-71442217D01*
X95219236Y-71442131D01*
X95233586Y-71424297D01*
X95265323Y-71389817D01*
X95311010Y-71342268D01*
X95367204Y-71285222D01*
X95430468Y-71222255D01*
X95437602Y-71215227D01*
X95517330Y-71138020D01*
X95578857Y-71081330D01*
X95623421Y-71044110D01*
X95652257Y-71025315D01*
X95664958Y-71022889D01*
X95683494Y-71033471D01*
X95721961Y-71057916D01*
X95776386Y-71093612D01*
X95842798Y-71137947D01*
X95917225Y-71188311D01*
X95934601Y-71200160D01*
X96181297Y-71368626D01*
X96292706Y-71318062D01*
X96360457Y-71288595D01*
X96433183Y-71258959D01*
X96495703Y-71235330D01*
X96498457Y-71234358D01*
X96547360Y-71216457D01*
X96585057Y-71201320D01*
X96603425Y-71192210D01*
X96603456Y-71192184D01*
X96609285Y-71175717D01*
X96619192Y-71135219D01*
X96632195Y-71075242D01*
X96647309Y-71000340D01*
X96663552Y-70915064D01*
X96664881Y-70907875D01*
X96681175Y-70820014D01*
X96696133Y-70740260D01*
X96708791Y-70673681D01*
X96718186Y-70625347D01*
X96723354Y-70600325D01*
X96723444Y-70599943D01*
X96726589Y-70589299D01*
X96732704Y-70581262D01*
X96745453Y-70575467D01*
X96768500Y-70571547D01*
X96805509Y-70569135D01*
X96860144Y-70567865D01*
X96936067Y-70567371D01*
X97036944Y-70567286D01*
X97050000Y-70567286D01*
X97153910Y-70567348D01*
G36*
X100203595Y-75291966D02*
G01*
X100261021Y-75329497D01*
X100288719Y-75363096D01*
X100310662Y-75424064D01*
X100312405Y-75472308D01*
X100308457Y-75536816D01*
X100159686Y-75601934D01*
X100087349Y-75635202D01*
X100040084Y-75661964D01*
X100015507Y-75685144D01*
X100011237Y-75707667D01*
X100024889Y-75732455D01*
X100039943Y-75748886D01*
X100083746Y-75775235D01*
X100131389Y-75777081D01*
X100175145Y-75756546D01*
X100207289Y-75715752D01*
X100213038Y-75701347D01*
X100240576Y-75656356D01*
X100272258Y-75637182D01*
X100315714Y-75620779D01*
X100315714Y-75682966D01*
X100311872Y-75725283D01*
X100296823Y-75760969D01*
X100265280Y-75801943D01*
X100260592Y-75807267D01*
X100225506Y-75843720D01*
X100195347Y-75863283D01*
X100157615Y-75872283D01*
X100126335Y-75875230D01*
X100070385Y-75875965D01*
X100030555Y-75866660D01*
X100005708Y-75852846D01*
X99966656Y-75822467D01*
X99939625Y-75789613D01*
X99922517Y-75748294D01*
X99913238Y-75692521D01*
X99909693Y-75616305D01*
X99909410Y-75577622D01*
X99910372Y-75531247D01*
X99998007Y-75531247D01*
X99999023Y-75556126D01*
X100001556Y-75560200D01*
X100018274Y-75554665D01*
X100054249Y-75540017D01*
X100102331Y-75519190D01*
X100112386Y-75514714D01*
X100173152Y-75483814D01*
X100206632Y-75456657D01*
X100213990Y-75431220D01*
X100196391Y-75405481D01*
X100181856Y-75394109D01*
X100129410Y-75371364D01*
X100080322Y-75375122D01*
X100039227Y-75402884D01*
X100010758Y-75452152D01*
X100001631Y-75491257D01*
X99998007Y-75531247D01*
X99910372Y-75531247D01*
X99911285Y-75487249D01*
X99918196Y-75420384D01*
X99931884Y-75371695D01*
X99954096Y-75335849D01*
X99986574Y-75307513D01*
X100000733Y-75298355D01*
X100065053Y-75274507D01*
X100135473Y-75273006D01*
X100203595Y-75291966D01*
X100203595Y-75291966D01*
G37*
X100203595Y-75291966D02*
X100261021Y-75329497D01*
X100288719Y-75363096D01*
X100310662Y-75424064D01*
X100312405Y-75472308D01*
X100308457Y-75536816D01*
X100159686Y-75601934D01*
X100087349Y-75635202D01*
X100040084Y-75661964D01*
X100015507Y-75685144D01*
X100011237Y-75707667D01*
X100024889Y-75732455D01*
X100039943Y-75748886D01*
X100083746Y-75775235D01*
X100131389Y-75777081D01*
X100175145Y-75756546D01*
X100207289Y-75715752D01*
X100213038Y-75701347D01*
X100240576Y-75656356D01*
X100272258Y-75637182D01*
X100315714Y-75620779D01*
X100315714Y-75682966D01*
X100311872Y-75725283D01*
X100296823Y-75760969D01*
X100265280Y-75801943D01*
X100260592Y-75807267D01*
X100225506Y-75843720D01*
X100195347Y-75863283D01*
X100157615Y-75872283D01*
X100126335Y-75875230D01*
X100070385Y-75875965D01*
X100030555Y-75866660D01*
X100005708Y-75852846D01*
X99966656Y-75822467D01*
X99939625Y-75789613D01*
X99922517Y-75748294D01*
X99913238Y-75692521D01*
X99909693Y-75616305D01*
X99909410Y-75577622D01*
X99910372Y-75531247D01*
X99998007Y-75531247D01*
X99999023Y-75556126D01*
X100001556Y-75560200D01*
X100018274Y-75554665D01*
X100054249Y-75540017D01*
X100102331Y-75519190D01*
X100112386Y-75514714D01*
X100173152Y-75483814D01*
X100206632Y-75456657D01*
X100213990Y-75431220D01*
X100196391Y-75405481D01*
X100181856Y-75394109D01*
X100129410Y-75371364D01*
X100080322Y-75375122D01*
X100039227Y-75402884D01*
X100010758Y-75452152D01*
X100001631Y-75491257D01*
X99998007Y-75531247D01*
X99910372Y-75531247D01*
X99911285Y-75487249D01*
X99918196Y-75420384D01*
X99931884Y-75371695D01*
X99954096Y-75335849D01*
X99986574Y-75307513D01*
X100000733Y-75298355D01*
X100065053Y-75274507D01*
X100135473Y-75273006D01*
X100203595Y-75291966D01*
G36*
X99702600Y-75283752D02*
G01*
X99719948Y-75291334D01*
X99761356Y-75324128D01*
X99796765Y-75371547D01*
X99818664Y-75422151D01*
X99822229Y-75447098D01*
X99810279Y-75481927D01*
X99784067Y-75500357D01*
X99755964Y-75511516D01*
X99743095Y-75513572D01*
X99736829Y-75498649D01*
X99724456Y-75466175D01*
X99719028Y-75451502D01*
X99688590Y-75400744D01*
X99644520Y-75375427D01*
X99588010Y-75376206D01*
X99583825Y-75377203D01*
X99553655Y-75391507D01*
X99531476Y-75419393D01*
X99516327Y-75464287D01*
X99507250Y-75529615D01*
X99503286Y-75618804D01*
X99502914Y-75666261D01*
X99502730Y-75741071D01*
X99501522Y-75792069D01*
X99498309Y-75824471D01*
X99492109Y-75843495D01*
X99481940Y-75854356D01*
X99466819Y-75862272D01*
X99465946Y-75862670D01*
X99436828Y-75874981D01*
X99422403Y-75879514D01*
X99420186Y-75865809D01*
X99418289Y-75827925D01*
X99416847Y-75770715D01*
X99415998Y-75699027D01*
X99415829Y-75646565D01*
X99416692Y-75545047D01*
X99420070Y-75468032D01*
X99427142Y-75411023D01*
X99439088Y-75369526D01*
X99457090Y-75339043D01*
X99482327Y-75315080D01*
X99507247Y-75298355D01*
X99567171Y-75276097D01*
X99636911Y-75271076D01*
X99702600Y-75283752D01*
X99702600Y-75283752D01*
G37*
X99702600Y-75283752D02*
X99719948Y-75291334D01*
X99761356Y-75324128D01*
X99796765Y-75371547D01*
X99818664Y-75422151D01*
X99822229Y-75447098D01*
X99810279Y-75481927D01*
X99784067Y-75500357D01*
X99755964Y-75511516D01*
X99743095Y-75513572D01*
X99736829Y-75498649D01*
X99724456Y-75466175D01*
X99719028Y-75451502D01*
X99688590Y-75400744D01*
X99644520Y-75375427D01*
X99588010Y-75376206D01*
X99583825Y-75377203D01*
X99553655Y-75391507D01*
X99531476Y-75419393D01*
X99516327Y-75464287D01*
X99507250Y-75529615D01*
X99503286Y-75618804D01*
X99502914Y-75666261D01*
X99502730Y-75741071D01*
X99501522Y-75792069D01*
X99498309Y-75824471D01*
X99492109Y-75843495D01*
X99481940Y-75854356D01*
X99466819Y-75862272D01*
X99465946Y-75862670D01*
X99436828Y-75874981D01*
X99422403Y-75879514D01*
X99420186Y-75865809D01*
X99418289Y-75827925D01*
X99416847Y-75770715D01*
X99415998Y-75699027D01*
X99415829Y-75646565D01*
X99416692Y-75545047D01*
X99420070Y-75468032D01*
X99427142Y-75411023D01*
X99439088Y-75369526D01*
X99457090Y-75339043D01*
X99482327Y-75315080D01*
X99507247Y-75298355D01*
X99567171Y-75276097D01*
X99636911Y-75271076D01*
X99702600Y-75283752D01*
G36*
X99194876Y-75281335D02*
G01*
X99236667Y-75300344D01*
X99269469Y-75323378D01*
X99293503Y-75349133D01*
X99310097Y-75382358D01*
X99320577Y-75427800D01*
X99326271Y-75490207D01*
X99328507Y-75574327D01*
X99328743Y-75629721D01*
X99328743Y-75845826D01*
X99291774Y-75862670D01*
X99262656Y-75874981D01*
X99248231Y-75879514D01*
X99245472Y-75866025D01*
X99243282Y-75829653D01*
X99241942Y-75776542D01*
X99241657Y-75734372D01*
X99240434Y-75673447D01*
X99237136Y-75625115D01*
X99232321Y-75595518D01*
X99228496Y-75589229D01*
X99202783Y-75595652D01*
X99162418Y-75612125D01*
X99115679Y-75634458D01*
X99070845Y-75658457D01*
X99036193Y-75679930D01*
X99020002Y-75694685D01*
X99019938Y-75694845D01*
X99021330Y-75722152D01*
X99033818Y-75748219D01*
X99055743Y-75769392D01*
X99087743Y-75776474D01*
X99115092Y-75775649D01*
X99153826Y-75775042D01*
X99174158Y-75784116D01*
X99186369Y-75808092D01*
X99187909Y-75812613D01*
X99193203Y-75846806D01*
X99179047Y-75867568D01*
X99142148Y-75877462D01*
X99102289Y-75879292D01*
X99030562Y-75865727D01*
X98993432Y-75846355D01*
X98947576Y-75800845D01*
X98923256Y-75744983D01*
X98921073Y-75685957D01*
X98941629Y-75630953D01*
X98972549Y-75596486D01*
X99003420Y-75577189D01*
X99051942Y-75552759D01*
X99108485Y-75527985D01*
X99117910Y-75524199D01*
X99180019Y-75496791D01*
X99215822Y-75472634D01*
X99227337Y-75448619D01*
X99216580Y-75421635D01*
X99198114Y-75400543D01*
X99154469Y-75374572D01*
X99106446Y-75372624D01*
X99062406Y-75392637D01*
X99030709Y-75432551D01*
X99026549Y-75442848D01*
X99002327Y-75480724D01*
X98966965Y-75508842D01*
X98922343Y-75531917D01*
X98922343Y-75466485D01*
X98924969Y-75426506D01*
X98936230Y-75394997D01*
X98961199Y-75361378D01*
X98985169Y-75335484D01*
X99022441Y-75298817D01*
X99051401Y-75279121D01*
X99082505Y-75271220D01*
X99117713Y-75269914D01*
X99194876Y-75281335D01*
X99194876Y-75281335D01*
G37*
X99194876Y-75281335D02*
X99236667Y-75300344D01*
X99269469Y-75323378D01*
X99293503Y-75349133D01*
X99310097Y-75382358D01*
X99320577Y-75427800D01*
X99326271Y-75490207D01*
X99328507Y-75574327D01*
X99328743Y-75629721D01*
X99328743Y-75845826D01*
X99291774Y-75862670D01*
X99262656Y-75874981D01*
X99248231Y-75879514D01*
X99245472Y-75866025D01*
X99243282Y-75829653D01*
X99241942Y-75776542D01*
X99241657Y-75734372D01*
X99240434Y-75673447D01*
X99237136Y-75625115D01*
X99232321Y-75595518D01*
X99228496Y-75589229D01*
X99202783Y-75595652D01*
X99162418Y-75612125D01*
X99115679Y-75634458D01*
X99070845Y-75658457D01*
X99036193Y-75679930D01*
X99020002Y-75694685D01*
X99019938Y-75694845D01*
X99021330Y-75722152D01*
X99033818Y-75748219D01*
X99055743Y-75769392D01*
X99087743Y-75776474D01*
X99115092Y-75775649D01*
X99153826Y-75775042D01*
X99174158Y-75784116D01*
X99186369Y-75808092D01*
X99187909Y-75812613D01*
X99193203Y-75846806D01*
X99179047Y-75867568D01*
X99142148Y-75877462D01*
X99102289Y-75879292D01*
X99030562Y-75865727D01*
X98993432Y-75846355D01*
X98947576Y-75800845D01*
X98923256Y-75744983D01*
X98921073Y-75685957D01*
X98941629Y-75630953D01*
X98972549Y-75596486D01*
X99003420Y-75577189D01*
X99051942Y-75552759D01*
X99108485Y-75527985D01*
X99117910Y-75524199D01*
X99180019Y-75496791D01*
X99215822Y-75472634D01*
X99227337Y-75448619D01*
X99216580Y-75421635D01*
X99198114Y-75400543D01*
X99154469Y-75374572D01*
X99106446Y-75372624D01*
X99062406Y-75392637D01*
X99030709Y-75432551D01*
X99026549Y-75442848D01*
X99002327Y-75480724D01*
X98966965Y-75508842D01*
X98922343Y-75531917D01*
X98922343Y-75466485D01*
X98924969Y-75426506D01*
X98936230Y-75394997D01*
X98961199Y-75361378D01*
X98985169Y-75335484D01*
X99022441Y-75298817D01*
X99051401Y-75279121D01*
X99082505Y-75271220D01*
X99117713Y-75269914D01*
X99194876Y-75281335D01*
G36*
X98829833Y-75283663D02*
G01*
X98832048Y-75321850D01*
X98833784Y-75379886D01*
X98834899Y-75453180D01*
X98835257Y-75530055D01*
X98835257Y-75790196D01*
X98789326Y-75836127D01*
X98757675Y-75864429D01*
X98729890Y-75875893D01*
X98691915Y-75875168D01*
X98676840Y-75873321D01*
X98629726Y-75867948D01*
X98590756Y-75864869D01*
X98581257Y-75864585D01*
X98549233Y-75866445D01*
X98503432Y-75871114D01*
X98485674Y-75873321D01*
X98442057Y-75876735D01*
X98412745Y-75869320D01*
X98383680Y-75846427D01*
X98373188Y-75836127D01*
X98327257Y-75790196D01*
X98327257Y-75303602D01*
X98364226Y-75286758D01*
X98396059Y-75274282D01*
X98414683Y-75269914D01*
X98419458Y-75283718D01*
X98423921Y-75322286D01*
X98427775Y-75381356D01*
X98430722Y-75456663D01*
X98432143Y-75520286D01*
X98436114Y-75770657D01*
X98470759Y-75775556D01*
X98502268Y-75772131D01*
X98517708Y-75761041D01*
X98522023Y-75740308D01*
X98525708Y-75696145D01*
X98528469Y-75634146D01*
X98530012Y-75559909D01*
X98530235Y-75521706D01*
X98530457Y-75301783D01*
X98576166Y-75285849D01*
X98608518Y-75275015D01*
X98626115Y-75269962D01*
X98626623Y-75269914D01*
X98628388Y-75283648D01*
X98630329Y-75321730D01*
X98632282Y-75379482D01*
X98634084Y-75452227D01*
X98635343Y-75520286D01*
X98639314Y-75770657D01*
X98726400Y-75770657D01*
X98730396Y-75542240D01*
X98734392Y-75313822D01*
X98776847Y-75291868D01*
X98808192Y-75276793D01*
X98826744Y-75269951D01*
X98827279Y-75269914D01*
X98829833Y-75283663D01*
X98829833Y-75283663D01*
G37*
X98829833Y-75283663D02*
X98832048Y-75321850D01*
X98833784Y-75379886D01*
X98834899Y-75453180D01*
X98835257Y-75530055D01*
X98835257Y-75790196D01*
X98789326Y-75836127D01*
X98757675Y-75864429D01*
X98729890Y-75875893D01*
X98691915Y-75875168D01*
X98676840Y-75873321D01*
X98629726Y-75867948D01*
X98590756Y-75864869D01*
X98581257Y-75864585D01*
X98549233Y-75866445D01*
X98503432Y-75871114D01*
X98485674Y-75873321D01*
X98442057Y-75876735D01*
X98412745Y-75869320D01*
X98383680Y-75846427D01*
X98373188Y-75836127D01*
X98327257Y-75790196D01*
X98327257Y-75303602D01*
X98364226Y-75286758D01*
X98396059Y-75274282D01*
X98414683Y-75269914D01*
X98419458Y-75283718D01*
X98423921Y-75322286D01*
X98427775Y-75381356D01*
X98430722Y-75456663D01*
X98432143Y-75520286D01*
X98436114Y-75770657D01*
X98470759Y-75775556D01*
X98502268Y-75772131D01*
X98517708Y-75761041D01*
X98522023Y-75740308D01*
X98525708Y-75696145D01*
X98528469Y-75634146D01*
X98530012Y-75559909D01*
X98530235Y-75521706D01*
X98530457Y-75301783D01*
X98576166Y-75285849D01*
X98608518Y-75275015D01*
X98626115Y-75269962D01*
X98626623Y-75269914D01*
X98628388Y-75283648D01*
X98630329Y-75321730D01*
X98632282Y-75379482D01*
X98634084Y-75452227D01*
X98635343Y-75520286D01*
X98639314Y-75770657D01*
X98726400Y-75770657D01*
X98730396Y-75542240D01*
X98734392Y-75313822D01*
X98776847Y-75291868D01*
X98808192Y-75276793D01*
X98826744Y-75269951D01*
X98827279Y-75269914D01*
X98829833Y-75283663D01*
G36*
X98240117Y-75390358D02*
G01*
X98239933Y-75498837D01*
X98239219Y-75582287D01*
X98237675Y-75644704D01*
X98235001Y-75690085D01*
X98230894Y-75722429D01*
X98225055Y-75745733D01*
X98217182Y-75763995D01*
X98211221Y-75774418D01*
X98161855Y-75830945D01*
X98099264Y-75866377D01*
X98030013Y-75879090D01*
X97960668Y-75867463D01*
X97919375Y-75846568D01*
X97876025Y-75810422D01*
X97846481Y-75766276D01*
X97828655Y-75708462D01*
X97820463Y-75631313D01*
X97819302Y-75574714D01*
X97819458Y-75570647D01*
X97920857Y-75570647D01*
X97921476Y-75635550D01*
X97924314Y-75678514D01*
X97930840Y-75706622D01*
X97942523Y-75726953D01*
X97956483Y-75742288D01*
X98003365Y-75771890D01*
X98053701Y-75774419D01*
X98101276Y-75749705D01*
X98104979Y-75746356D01*
X98120783Y-75728935D01*
X98130693Y-75708209D01*
X98136058Y-75677362D01*
X98138228Y-75629577D01*
X98138571Y-75576748D01*
X98137827Y-75510381D01*
X98134748Y-75466106D01*
X98128061Y-75437009D01*
X98116496Y-75416173D01*
X98107013Y-75405107D01*
X98062960Y-75377198D01*
X98012224Y-75373843D01*
X97963796Y-75395159D01*
X97954450Y-75403073D01*
X97938540Y-75420647D01*
X97928610Y-75441587D01*
X97923278Y-75472782D01*
X97921163Y-75521122D01*
X97920857Y-75570647D01*
X97819458Y-75570647D01*
X97822810Y-75483568D01*
X97834726Y-75415086D01*
X97857135Y-75363600D01*
X97892124Y-75323443D01*
X97919375Y-75302861D01*
X97968907Y-75280625D01*
X98026316Y-75270304D01*
X98079682Y-75273067D01*
X98109543Y-75284212D01*
X98121261Y-75287383D01*
X98129037Y-75275557D01*
X98134465Y-75243866D01*
X98138571Y-75195593D01*
X98143067Y-75141829D01*
X98149313Y-75109482D01*
X98160676Y-75090985D01*
X98180528Y-75078770D01*
X98193000Y-75073362D01*
X98240171Y-75053601D01*
X98240117Y-75390358D01*
X98240117Y-75390358D01*
G37*
X98240117Y-75390358D02*
X98239933Y-75498837D01*
X98239219Y-75582287D01*
X98237675Y-75644704D01*
X98235001Y-75690085D01*
X98230894Y-75722429D01*
X98225055Y-75745733D01*
X98217182Y-75763995D01*
X98211221Y-75774418D01*
X98161855Y-75830945D01*
X98099264Y-75866377D01*
X98030013Y-75879090D01*
X97960668Y-75867463D01*
X97919375Y-75846568D01*
X97876025Y-75810422D01*
X97846481Y-75766276D01*
X97828655Y-75708462D01*
X97820463Y-75631313D01*
X97819302Y-75574714D01*
X97819458Y-75570647D01*
X97920857Y-75570647D01*
X97921476Y-75635550D01*
X97924314Y-75678514D01*
X97930840Y-75706622D01*
X97942523Y-75726953D01*
X97956483Y-75742288D01*
X98003365Y-75771890D01*
X98053701Y-75774419D01*
X98101276Y-75749705D01*
X98104979Y-75746356D01*
X98120783Y-75728935D01*
X98130693Y-75708209D01*
X98136058Y-75677362D01*
X98138228Y-75629577D01*
X98138571Y-75576748D01*
X98137827Y-75510381D01*
X98134748Y-75466106D01*
X98128061Y-75437009D01*
X98116496Y-75416173D01*
X98107013Y-75405107D01*
X98062960Y-75377198D01*
X98012224Y-75373843D01*
X97963796Y-75395159D01*
X97954450Y-75403073D01*
X97938540Y-75420647D01*
X97928610Y-75441587D01*
X97923278Y-75472782D01*
X97921163Y-75521122D01*
X97920857Y-75570647D01*
X97819458Y-75570647D01*
X97822810Y-75483568D01*
X97834726Y-75415086D01*
X97857135Y-75363600D01*
X97892124Y-75323443D01*
X97919375Y-75302861D01*
X97968907Y-75280625D01*
X98026316Y-75270304D01*
X98079682Y-75273067D01*
X98109543Y-75284212D01*
X98121261Y-75287383D01*
X98129037Y-75275557D01*
X98134465Y-75243866D01*
X98138571Y-75195593D01*
X98143067Y-75141829D01*
X98149313Y-75109482D01*
X98160676Y-75090985D01*
X98180528Y-75078770D01*
X98193000Y-75073362D01*
X98240171Y-75053601D01*
X98240117Y-75390358D01*
G36*
X97579926Y-75274755D02*
G01*
X97645858Y-75299084D01*
X97699273Y-75342117D01*
X97720164Y-75372409D01*
X97742939Y-75427994D01*
X97742466Y-75468186D01*
X97718562Y-75495217D01*
X97709717Y-75499813D01*
X97671530Y-75514144D01*
X97652028Y-75510472D01*
X97645422Y-75486407D01*
X97645086Y-75473114D01*
X97632992Y-75424210D01*
X97601471Y-75389999D01*
X97557659Y-75373476D01*
X97508695Y-75377634D01*
X97468894Y-75399227D01*
X97455450Y-75411544D01*
X97445921Y-75426487D01*
X97439485Y-75449075D01*
X97435317Y-75484328D01*
X97432597Y-75537266D01*
X97430502Y-75612907D01*
X97429960Y-75636857D01*
X97427981Y-75718790D01*
X97425731Y-75776455D01*
X97422357Y-75814608D01*
X97417006Y-75838004D01*
X97408824Y-75851398D01*
X97396959Y-75859545D01*
X97389362Y-75863144D01*
X97357102Y-75875452D01*
X97338111Y-75879514D01*
X97331836Y-75865948D01*
X97328006Y-75824934D01*
X97326600Y-75755999D01*
X97327598Y-75658669D01*
X97327908Y-75643657D01*
X97330101Y-75554859D01*
X97332693Y-75490019D01*
X97336382Y-75444067D01*
X97341864Y-75411935D01*
X97349835Y-75388553D01*
X97360993Y-75368852D01*
X97366830Y-75360410D01*
X97400296Y-75323057D01*
X97437727Y-75294003D01*
X97442309Y-75291467D01*
X97509426Y-75271443D01*
X97579926Y-75274755D01*
X97579926Y-75274755D01*
G37*
X97579926Y-75274755D02*
X97645858Y-75299084D01*
X97699273Y-75342117D01*
X97720164Y-75372409D01*
X97742939Y-75427994D01*
X97742466Y-75468186D01*
X97718562Y-75495217D01*
X97709717Y-75499813D01*
X97671530Y-75514144D01*
X97652028Y-75510472D01*
X97645422Y-75486407D01*
X97645086Y-75473114D01*
X97632992Y-75424210D01*
X97601471Y-75389999D01*
X97557659Y-75373476D01*
X97508695Y-75377634D01*
X97468894Y-75399227D01*
X97455450Y-75411544D01*
X97445921Y-75426487D01*
X97439485Y-75449075D01*
X97435317Y-75484328D01*
X97432597Y-75537266D01*
X97430502Y-75612907D01*
X97429960Y-75636857D01*
X97427981Y-75718790D01*
X97425731Y-75776455D01*
X97422357Y-75814608D01*
X97417006Y-75838004D01*
X97408824Y-75851398D01*
X97396959Y-75859545D01*
X97389362Y-75863144D01*
X97357102Y-75875452D01*
X97338111Y-75879514D01*
X97331836Y-75865948D01*
X97328006Y-75824934D01*
X97326600Y-75755999D01*
X97327598Y-75658669D01*
X97327908Y-75643657D01*
X97330101Y-75554859D01*
X97332693Y-75490019D01*
X97336382Y-75444067D01*
X97341864Y-75411935D01*
X97349835Y-75388553D01*
X97360993Y-75368852D01*
X97366830Y-75360410D01*
X97400296Y-75323057D01*
X97437727Y-75294003D01*
X97442309Y-75291467D01*
X97509426Y-75271443D01*
X97579926Y-75274755D01*
G36*
X97089744Y-75275968D02*
G01*
X97146616Y-75297087D01*
X97147267Y-75297493D01*
X97182440Y-75323380D01*
X97208407Y-75353633D01*
X97226670Y-75393058D01*
X97238732Y-75446462D01*
X97246096Y-75518651D01*
X97250264Y-75614432D01*
X97250629Y-75628078D01*
X97255876Y-75833842D01*
X97211716Y-75856678D01*
X97179763Y-75872110D01*
X97160470Y-75879423D01*
X97159578Y-75879514D01*
X97156239Y-75866022D01*
X97153587Y-75829626D01*
X97151956Y-75776452D01*
X97151600Y-75733393D01*
X97151592Y-75663641D01*
X97148403Y-75619837D01*
X97137288Y-75598944D01*
X97113501Y-75597925D01*
X97072296Y-75613741D01*
X97010086Y-75642815D01*
X96964341Y-75666963D01*
X96940813Y-75687913D01*
X96933896Y-75710747D01*
X96933886Y-75711877D01*
X96945299Y-75751212D01*
X96979092Y-75772462D01*
X97030809Y-75775539D01*
X97068061Y-75775006D01*
X97087703Y-75785735D01*
X97099952Y-75811505D01*
X97107002Y-75844337D01*
X97096842Y-75862966D01*
X97093017Y-75865632D01*
X97057001Y-75876340D01*
X97006566Y-75877856D01*
X96954626Y-75870759D01*
X96917822Y-75857788D01*
X96866938Y-75814585D01*
X96838014Y-75754446D01*
X96832286Y-75707462D01*
X96836657Y-75665082D01*
X96852475Y-75630488D01*
X96883797Y-75599763D01*
X96934678Y-75568990D01*
X97009176Y-75534252D01*
X97013714Y-75532288D01*
X97080821Y-75501287D01*
X97122232Y-75475862D01*
X97139981Y-75453014D01*
X97136107Y-75429745D01*
X97112643Y-75403056D01*
X97105627Y-75396914D01*
X97058630Y-75373100D01*
X97009933Y-75374103D01*
X96967522Y-75397451D01*
X96939384Y-75440675D01*
X96936769Y-75449160D01*
X96911308Y-75490308D01*
X96879001Y-75510128D01*
X96832286Y-75529770D01*
X96832286Y-75478950D01*
X96846496Y-75405082D01*
X96888675Y-75337327D01*
X96910624Y-75314661D01*
X96960517Y-75285569D01*
X97023967Y-75272400D01*
X97089744Y-75275968D01*
X97089744Y-75275968D01*
G37*
X97089744Y-75275968D02*
X97146616Y-75297087D01*
X97147267Y-75297493D01*
X97182440Y-75323380D01*
X97208407Y-75353633D01*
X97226670Y-75393058D01*
X97238732Y-75446462D01*
X97246096Y-75518651D01*
X97250264Y-75614432D01*
X97250629Y-75628078D01*
X97255876Y-75833842D01*
X97211716Y-75856678D01*
X97179763Y-75872110D01*
X97160470Y-75879423D01*
X97159578Y-75879514D01*
X97156239Y-75866022D01*
X97153587Y-75829626D01*
X97151956Y-75776452D01*
X97151600Y-75733393D01*
X97151592Y-75663641D01*
X97148403Y-75619837D01*
X97137288Y-75598944D01*
X97113501Y-75597925D01*
X97072296Y-75613741D01*
X97010086Y-75642815D01*
X96964341Y-75666963D01*
X96940813Y-75687913D01*
X96933896Y-75710747D01*
X96933886Y-75711877D01*
X96945299Y-75751212D01*
X96979092Y-75772462D01*
X97030809Y-75775539D01*
X97068061Y-75775006D01*
X97087703Y-75785735D01*
X97099952Y-75811505D01*
X97107002Y-75844337D01*
X97096842Y-75862966D01*
X97093017Y-75865632D01*
X97057001Y-75876340D01*
X97006566Y-75877856D01*
X96954626Y-75870759D01*
X96917822Y-75857788D01*
X96866938Y-75814585D01*
X96838014Y-75754446D01*
X96832286Y-75707462D01*
X96836657Y-75665082D01*
X96852475Y-75630488D01*
X96883797Y-75599763D01*
X96934678Y-75568990D01*
X97009176Y-75534252D01*
X97013714Y-75532288D01*
X97080821Y-75501287D01*
X97122232Y-75475862D01*
X97139981Y-75453014D01*
X97136107Y-75429745D01*
X97112643Y-75403056D01*
X97105627Y-75396914D01*
X97058630Y-75373100D01*
X97009933Y-75374103D01*
X96967522Y-75397451D01*
X96939384Y-75440675D01*
X96936769Y-75449160D01*
X96911308Y-75490308D01*
X96879001Y-75510128D01*
X96832286Y-75529770D01*
X96832286Y-75478950D01*
X96846496Y-75405082D01*
X96888675Y-75337327D01*
X96910624Y-75314661D01*
X96960517Y-75285569D01*
X97023967Y-75272400D01*
X97089744Y-75275968D01*
G36*
X96425886Y-75176289D02*
G01*
X96430139Y-75235613D01*
X96435025Y-75270572D01*
X96441795Y-75285820D01*
X96451702Y-75286015D01*
X96454914Y-75284195D01*
X96497644Y-75271015D01*
X96553227Y-75271785D01*
X96609737Y-75285333D01*
X96645082Y-75302861D01*
X96681321Y-75330861D01*
X96707813Y-75362549D01*
X96725999Y-75402813D01*
X96737322Y-75456543D01*
X96743222Y-75528626D01*
X96745143Y-75623951D01*
X96745177Y-75642237D01*
X96745200Y-75847646D01*
X96699491Y-75863580D01*
X96667027Y-75874420D01*
X96649215Y-75879468D01*
X96648691Y-75879514D01*
X96646937Y-75865828D01*
X96645444Y-75828076D01*
X96644326Y-75771224D01*
X96643697Y-75700234D01*
X96643600Y-75657073D01*
X96643398Y-75571973D01*
X96642358Y-75510981D01*
X96639831Y-75469177D01*
X96635164Y-75441642D01*
X96627707Y-75423456D01*
X96616811Y-75409698D01*
X96610007Y-75403073D01*
X96563272Y-75376375D01*
X96512272Y-75374375D01*
X96466001Y-75396955D01*
X96457444Y-75405107D01*
X96444893Y-75420436D01*
X96436188Y-75438618D01*
X96430631Y-75464909D01*
X96427526Y-75504562D01*
X96426176Y-75562832D01*
X96425886Y-75643173D01*
X96425886Y-75847646D01*
X96380177Y-75863580D01*
X96347713Y-75874420D01*
X96329901Y-75879468D01*
X96329377Y-75879514D01*
X96328037Y-75865623D01*
X96326828Y-75826439D01*
X96325801Y-75765700D01*
X96325002Y-75687141D01*
X96324481Y-75594498D01*
X96324286Y-75491509D01*
X96324286Y-75094342D01*
X96371457Y-75074444D01*
X96418629Y-75054547D01*
X96425886Y-75176289D01*
X96425886Y-75176289D01*
G37*
X96425886Y-75176289D02*
X96430139Y-75235613D01*
X96435025Y-75270572D01*
X96441795Y-75285820D01*
X96451702Y-75286015D01*
X96454914Y-75284195D01*
X96497644Y-75271015D01*
X96553227Y-75271785D01*
X96609737Y-75285333D01*
X96645082Y-75302861D01*
X96681321Y-75330861D01*
X96707813Y-75362549D01*
X96725999Y-75402813D01*
X96737322Y-75456543D01*
X96743222Y-75528626D01*
X96745143Y-75623951D01*
X96745177Y-75642237D01*
X96745200Y-75847646D01*
X96699491Y-75863580D01*
X96667027Y-75874420D01*
X96649215Y-75879468D01*
X96648691Y-75879514D01*
X96646937Y-75865828D01*
X96645444Y-75828076D01*
X96644326Y-75771224D01*
X96643697Y-75700234D01*
X96643600Y-75657073D01*
X96643398Y-75571973D01*
X96642358Y-75510981D01*
X96639831Y-75469177D01*
X96635164Y-75441642D01*
X96627707Y-75423456D01*
X96616811Y-75409698D01*
X96610007Y-75403073D01*
X96563272Y-75376375D01*
X96512272Y-75374375D01*
X96466001Y-75396955D01*
X96457444Y-75405107D01*
X96444893Y-75420436D01*
X96436188Y-75438618D01*
X96430631Y-75464909D01*
X96427526Y-75504562D01*
X96426176Y-75562832D01*
X96425886Y-75643173D01*
X96425886Y-75847646D01*
X96380177Y-75863580D01*
X96347713Y-75874420D01*
X96329901Y-75879468D01*
X96329377Y-75879514D01*
X96328037Y-75865623D01*
X96326828Y-75826439D01*
X96325801Y-75765700D01*
X96325002Y-75687141D01*
X96324481Y-75594498D01*
X96324286Y-75491509D01*
X96324286Y-75094342D01*
X96371457Y-75074444D01*
X96418629Y-75054547D01*
X96425886Y-75176289D01*
G36*
X95218303Y-75256239D02*
G01*
X95275527Y-75294735D01*
X95319749Y-75350335D01*
X95346167Y-75421086D01*
X95351510Y-75473162D01*
X95350903Y-75494893D01*
X95345822Y-75511531D01*
X95331855Y-75526437D01*
X95304589Y-75542973D01*
X95259612Y-75564498D01*
X95192511Y-75594374D01*
X95192171Y-75594524D01*
X95130407Y-75622813D01*
X95079759Y-75647933D01*
X95045404Y-75667179D01*
X95032518Y-75677848D01*
X95032514Y-75677934D01*
X95043872Y-75701166D01*
X95070431Y-75726774D01*
X95100923Y-75745221D01*
X95116370Y-75748886D01*
X95158515Y-75736212D01*
X95194808Y-75704471D01*
X95212517Y-75669572D01*
X95229552Y-75643845D01*
X95262922Y-75614546D01*
X95302149Y-75589235D01*
X95336756Y-75575471D01*
X95343993Y-75574714D01*
X95352139Y-75587160D01*
X95352630Y-75618972D01*
X95346643Y-75661866D01*
X95335357Y-75707558D01*
X95319950Y-75747761D01*
X95319171Y-75749322D01*
X95272804Y-75814062D01*
X95212711Y-75858097D01*
X95144465Y-75879711D01*
X95073638Y-75877185D01*
X95005804Y-75848804D01*
X95002788Y-75846808D01*
X94949427Y-75798448D01*
X94914340Y-75735352D01*
X94894922Y-75652387D01*
X94892316Y-75629078D01*
X94887701Y-75519055D01*
X94893233Y-75467748D01*
X95032514Y-75467748D01*
X95034324Y-75499753D01*
X95044222Y-75509093D01*
X95068898Y-75502105D01*
X95107795Y-75485587D01*
X95151275Y-75464881D01*
X95152356Y-75464333D01*
X95189209Y-75444949D01*
X95204000Y-75432013D01*
X95200353Y-75418451D01*
X95184995Y-75400632D01*
X95145923Y-75374845D01*
X95103846Y-75372950D01*
X95066103Y-75391717D01*
X95040034Y-75427915D01*
X95032514Y-75467748D01*
X94893233Y-75467748D01*
X94897194Y-75431027D01*
X94921550Y-75361212D01*
X94955456Y-75312302D01*
X95016653Y-75262878D01*
X95084063Y-75238359D01*
X95152880Y-75236797D01*
X95218303Y-75256239D01*
X95218303Y-75256239D01*
G37*
X95218303Y-75256239D02*
X95275527Y-75294735D01*
X95319749Y-75350335D01*
X95346167Y-75421086D01*
X95351510Y-75473162D01*
X95350903Y-75494893D01*
X95345822Y-75511531D01*
X95331855Y-75526437D01*
X95304589Y-75542973D01*
X95259612Y-75564498D01*
X95192511Y-75594374D01*
X95192171Y-75594524D01*
X95130407Y-75622813D01*
X95079759Y-75647933D01*
X95045404Y-75667179D01*
X95032518Y-75677848D01*
X95032514Y-75677934D01*
X95043872Y-75701166D01*
X95070431Y-75726774D01*
X95100923Y-75745221D01*
X95116370Y-75748886D01*
X95158515Y-75736212D01*
X95194808Y-75704471D01*
X95212517Y-75669572D01*
X95229552Y-75643845D01*
X95262922Y-75614546D01*
X95302149Y-75589235D01*
X95336756Y-75575471D01*
X95343993Y-75574714D01*
X95352139Y-75587160D01*
X95352630Y-75618972D01*
X95346643Y-75661866D01*
X95335357Y-75707558D01*
X95319950Y-75747761D01*
X95319171Y-75749322D01*
X95272804Y-75814062D01*
X95212711Y-75858097D01*
X95144465Y-75879711D01*
X95073638Y-75877185D01*
X95005804Y-75848804D01*
X95002788Y-75846808D01*
X94949427Y-75798448D01*
X94914340Y-75735352D01*
X94894922Y-75652387D01*
X94892316Y-75629078D01*
X94887701Y-75519055D01*
X94893233Y-75467748D01*
X95032514Y-75467748D01*
X95034324Y-75499753D01*
X95044222Y-75509093D01*
X95068898Y-75502105D01*
X95107795Y-75485587D01*
X95151275Y-75464881D01*
X95152356Y-75464333D01*
X95189209Y-75444949D01*
X95204000Y-75432013D01*
X95200353Y-75418451D01*
X95184995Y-75400632D01*
X95145923Y-75374845D01*
X95103846Y-75372950D01*
X95066103Y-75391717D01*
X95040034Y-75427915D01*
X95032514Y-75467748D01*
X94893233Y-75467748D01*
X94897194Y-75431027D01*
X94921550Y-75361212D01*
X94955456Y-75312302D01*
X95016653Y-75262878D01*
X95084063Y-75238359D01*
X95152880Y-75236797D01*
X95218303Y-75256239D01*
G36*
X94091115Y-75246962D02*
G01*
X94159145Y-75282733D01*
X94209351Y-75340301D01*
X94227185Y-75377312D01*
X94241063Y-75432882D01*
X94248167Y-75503096D01*
X94248840Y-75579727D01*
X94243427Y-75654552D01*
X94232270Y-75719342D01*
X94215714Y-75765873D01*
X94210626Y-75773887D01*
X94150355Y-75833707D01*
X94078769Y-75869535D01*
X94001092Y-75880020D01*
X93922548Y-75863810D01*
X93900689Y-75854092D01*
X93858122Y-75824143D01*
X93820763Y-75784433D01*
X93817232Y-75779397D01*
X93802881Y-75755124D01*
X93793394Y-75729178D01*
X93787790Y-75695022D01*
X93785086Y-75646119D01*
X93784299Y-75575935D01*
X93784286Y-75560200D01*
X93784322Y-75555192D01*
X93929429Y-75555192D01*
X93930273Y-75621430D01*
X93933596Y-75665386D01*
X93940583Y-75693779D01*
X93952416Y-75713325D01*
X93958457Y-75719857D01*
X93993186Y-75744680D01*
X94026903Y-75743548D01*
X94060995Y-75722016D01*
X94081329Y-75699029D01*
X94093371Y-75665478D01*
X94100134Y-75612569D01*
X94100598Y-75606399D01*
X94101752Y-75510513D01*
X94089688Y-75439299D01*
X94064570Y-75393194D01*
X94026560Y-75372635D01*
X94012992Y-75371514D01*
X93977364Y-75377152D01*
X93952994Y-75396686D01*
X93938093Y-75434042D01*
X93930875Y-75493150D01*
X93929429Y-75555192D01*
X93784322Y-75555192D01*
X93784826Y-75485413D01*
X93787096Y-75433159D01*
X93792068Y-75396949D01*
X93800713Y-75370299D01*
X93814005Y-75346722D01*
X93816943Y-75342338D01*
X93866313Y-75283249D01*
X93920109Y-75248947D01*
X93985602Y-75235331D01*
X94007842Y-75234665D01*
X94091115Y-75246962D01*
X94091115Y-75246962D01*
G37*
X94091115Y-75246962D02*
X94159145Y-75282733D01*
X94209351Y-75340301D01*
X94227185Y-75377312D01*
X94241063Y-75432882D01*
X94248167Y-75503096D01*
X94248840Y-75579727D01*
X94243427Y-75654552D01*
X94232270Y-75719342D01*
X94215714Y-75765873D01*
X94210626Y-75773887D01*
X94150355Y-75833707D01*
X94078769Y-75869535D01*
X94001092Y-75880020D01*
X93922548Y-75863810D01*
X93900689Y-75854092D01*
X93858122Y-75824143D01*
X93820763Y-75784433D01*
X93817232Y-75779397D01*
X93802881Y-75755124D01*
X93793394Y-75729178D01*
X93787790Y-75695022D01*
X93785086Y-75646119D01*
X93784299Y-75575935D01*
X93784286Y-75560200D01*
X93784322Y-75555192D01*
X93929429Y-75555192D01*
X93930273Y-75621430D01*
X93933596Y-75665386D01*
X93940583Y-75693779D01*
X93952416Y-75713325D01*
X93958457Y-75719857D01*
X93993186Y-75744680D01*
X94026903Y-75743548D01*
X94060995Y-75722016D01*
X94081329Y-75699029D01*
X94093371Y-75665478D01*
X94100134Y-75612569D01*
X94100598Y-75606399D01*
X94101752Y-75510513D01*
X94089688Y-75439299D01*
X94064570Y-75393194D01*
X94026560Y-75372635D01*
X94012992Y-75371514D01*
X93977364Y-75377152D01*
X93952994Y-75396686D01*
X93938093Y-75434042D01*
X93930875Y-75493150D01*
X93929429Y-75555192D01*
X93784322Y-75555192D01*
X93784826Y-75485413D01*
X93787096Y-75433159D01*
X93792068Y-75396949D01*
X93800713Y-75370299D01*
X93814005Y-75346722D01*
X93816943Y-75342338D01*
X93866313Y-75283249D01*
X93920109Y-75248947D01*
X93985602Y-75235331D01*
X94007842Y-75234665D01*
X94091115Y-75246962D01*
G36*
X95766093Y-75252780D02*
G01*
X95812672Y-75279723D01*
X95845057Y-75306466D01*
X95868742Y-75334484D01*
X95885059Y-75368748D01*
X95895339Y-75414227D01*
X95900914Y-75475892D01*
X95903116Y-75558711D01*
X95903371Y-75618246D01*
X95903371Y-75837391D01*
X95841686Y-75865044D01*
X95780000Y-75892697D01*
X95772743Y-75652670D01*
X95769744Y-75563028D01*
X95766598Y-75497962D01*
X95762701Y-75453026D01*
X95757447Y-75423770D01*
X95750231Y-75405748D01*
X95740450Y-75394511D01*
X95737312Y-75392079D01*
X95689761Y-75373083D01*
X95641697Y-75380600D01*
X95613086Y-75400543D01*
X95601447Y-75414675D01*
X95593391Y-75433220D01*
X95588271Y-75461334D01*
X95585441Y-75504173D01*
X95584256Y-75566895D01*
X95584057Y-75632261D01*
X95584018Y-75714268D01*
X95582614Y-75772316D01*
X95577914Y-75811465D01*
X95567987Y-75836780D01*
X95550903Y-75853323D01*
X95524732Y-75866156D01*
X95489775Y-75879491D01*
X95451596Y-75894007D01*
X95456141Y-75636389D01*
X95457971Y-75543519D01*
X95460112Y-75474889D01*
X95463181Y-75425711D01*
X95467794Y-75391198D01*
X95474568Y-75366562D01*
X95484119Y-75347016D01*
X95495634Y-75329770D01*
X95551190Y-75274680D01*
X95618980Y-75242822D01*
X95692713Y-75235191D01*
X95766093Y-75252780D01*
X95766093Y-75252780D01*
G37*
X95766093Y-75252780D02*
X95812672Y-75279723D01*
X95845057Y-75306466D01*
X95868742Y-75334484D01*
X95885059Y-75368748D01*
X95895339Y-75414227D01*
X95900914Y-75475892D01*
X95903116Y-75558711D01*
X95903371Y-75618246D01*
X95903371Y-75837391D01*
X95841686Y-75865044D01*
X95780000Y-75892697D01*
X95772743Y-75652670D01*
X95769744Y-75563028D01*
X95766598Y-75497962D01*
X95762701Y-75453026D01*
X95757447Y-75423770D01*
X95750231Y-75405748D01*
X95740450Y-75394511D01*
X95737312Y-75392079D01*
X95689761Y-75373083D01*
X95641697Y-75380600D01*
X95613086Y-75400543D01*
X95601447Y-75414675D01*
X95593391Y-75433220D01*
X95588271Y-75461334D01*
X95585441Y-75504173D01*
X95584256Y-75566895D01*
X95584057Y-75632261D01*
X95584018Y-75714268D01*
X95582614Y-75772316D01*
X95577914Y-75811465D01*
X95567987Y-75836780D01*
X95550903Y-75853323D01*
X95524732Y-75866156D01*
X95489775Y-75879491D01*
X95451596Y-75894007D01*
X95456141Y-75636389D01*
X95457971Y-75543519D01*
X95460112Y-75474889D01*
X95463181Y-75425711D01*
X95467794Y-75391198D01*
X95474568Y-75366562D01*
X95484119Y-75347016D01*
X95495634Y-75329770D01*
X95551190Y-75274680D01*
X95618980Y-75242822D01*
X95692713Y-75235191D01*
X95766093Y-75252780D01*
G36*
X94649744Y-75244918D02*
G01*
X94705201Y-75272568D01*
X94754148Y-75323480D01*
X94767629Y-75342338D01*
X94782314Y-75367015D01*
X94791842Y-75393816D01*
X94797293Y-75429587D01*
X94799747Y-75481169D01*
X94800286Y-75549267D01*
X94797852Y-75642588D01*
X94789394Y-75712657D01*
X94773174Y-75764931D01*
X94747454Y-75804869D01*
X94710497Y-75837929D01*
X94707782Y-75839886D01*
X94671360Y-75859908D01*
X94627502Y-75869815D01*
X94571724Y-75872257D01*
X94481048Y-75872257D01*
X94481010Y-75960283D01*
X94480166Y-76009308D01*
X94475024Y-76038065D01*
X94461587Y-76055311D01*
X94435858Y-76069808D01*
X94429679Y-76072769D01*
X94400764Y-76086648D01*
X94378376Y-76095414D01*
X94361729Y-76096171D01*
X94350036Y-76086023D01*
X94342510Y-76062073D01*
X94338366Y-76021426D01*
X94336815Y-75961186D01*
X94337071Y-75878455D01*
X94338349Y-75770339D01*
X94338748Y-75738000D01*
X94340185Y-75626524D01*
X94341472Y-75553603D01*
X94480971Y-75553603D01*
X94481755Y-75615499D01*
X94485240Y-75655997D01*
X94493124Y-75682708D01*
X94507105Y-75703244D01*
X94516597Y-75713260D01*
X94555404Y-75742567D01*
X94589763Y-75744952D01*
X94625216Y-75720750D01*
X94626114Y-75719857D01*
X94640539Y-75701153D01*
X94649313Y-75675732D01*
X94653739Y-75636584D01*
X94655118Y-75576697D01*
X94655143Y-75563430D01*
X94651812Y-75480901D01*
X94640969Y-75423691D01*
X94621340Y-75388766D01*
X94591650Y-75373094D01*
X94574491Y-75371514D01*
X94533766Y-75378926D01*
X94505832Y-75403330D01*
X94489017Y-75447980D01*
X94481650Y-75516130D01*
X94480971Y-75553603D01*
X94341472Y-75553603D01*
X94341708Y-75540245D01*
X94343677Y-75475333D01*
X94346450Y-75427958D01*
X94350388Y-75394290D01*
X94355849Y-75370498D01*
X94363192Y-75352753D01*
X94372777Y-75337224D01*
X94376887Y-75331381D01*
X94431405Y-75276185D01*
X94500336Y-75244890D01*
X94580072Y-75236165D01*
X94649744Y-75244918D01*
X94649744Y-75244918D01*
G37*
X94649744Y-75244918D02*
X94705201Y-75272568D01*
X94754148Y-75323480D01*
X94767629Y-75342338D01*
X94782314Y-75367015D01*
X94791842Y-75393816D01*
X94797293Y-75429587D01*
X94799747Y-75481169D01*
X94800286Y-75549267D01*
X94797852Y-75642588D01*
X94789394Y-75712657D01*
X94773174Y-75764931D01*
X94747454Y-75804869D01*
X94710497Y-75837929D01*
X94707782Y-75839886D01*
X94671360Y-75859908D01*
X94627502Y-75869815D01*
X94571724Y-75872257D01*
X94481048Y-75872257D01*
X94481010Y-75960283D01*
X94480166Y-76009308D01*
X94475024Y-76038065D01*
X94461587Y-76055311D01*
X94435858Y-76069808D01*
X94429679Y-76072769D01*
X94400764Y-76086648D01*
X94378376Y-76095414D01*
X94361729Y-76096171D01*
X94350036Y-76086023D01*
X94342510Y-76062073D01*
X94338366Y-76021426D01*
X94336815Y-75961186D01*
X94337071Y-75878455D01*
X94338349Y-75770339D01*
X94338748Y-75738000D01*
X94340185Y-75626524D01*
X94341472Y-75553603D01*
X94480971Y-75553603D01*
X94481755Y-75615499D01*
X94485240Y-75655997D01*
X94493124Y-75682708D01*
X94507105Y-75703244D01*
X94516597Y-75713260D01*
X94555404Y-75742567D01*
X94589763Y-75744952D01*
X94625216Y-75720750D01*
X94626114Y-75719857D01*
X94640539Y-75701153D01*
X94649313Y-75675732D01*
X94653739Y-75636584D01*
X94655118Y-75576697D01*
X94655143Y-75563430D01*
X94651812Y-75480901D01*
X94640969Y-75423691D01*
X94621340Y-75388766D01*
X94591650Y-75373094D01*
X94574491Y-75371514D01*
X94533766Y-75378926D01*
X94505832Y-75403330D01*
X94489017Y-75447980D01*
X94481650Y-75516130D01*
X94480971Y-75553603D01*
X94341472Y-75553603D01*
X94341708Y-75540245D01*
X94343677Y-75475333D01*
X94346450Y-75427958D01*
X94350388Y-75394290D01*
X94355849Y-75370498D01*
X94363192Y-75352753D01*
X94372777Y-75337224D01*
X94376887Y-75331381D01*
X94431405Y-75276185D01*
X94500336Y-75244890D01*
X94580072Y-75236165D01*
X94649744Y-75244918D01*
D10*
X86805000Y-63570000D02*
X86805000Y-66110000D01*
X89395000Y-63570000D02*
X86805000Y-63570000D01*
X145155000Y-111900000D02*
X145155000Y-63510000D01*
X150355000Y-111900000D02*
X145155000Y-111900000D01*
X150355000Y-63510000D02*
X150355000Y-111900000D01*
X145155000Y-63510000D02*
X150355000Y-63510000D01*
X89405000Y-111820000D02*
X89395000Y-63570000D01*
X84205000Y-111820000D02*
X89405000Y-111820000D01*
X84205000Y-66110000D02*
X84205000Y-111820000D01*
X86805000Y-66110000D02*
X84205000Y-66110000D01*
X84195000Y-63510000D02*
X84195000Y-64840000D01*
X85525000Y-63510000D02*
X84195000Y-63510000D01*
X98595000Y-102295000D02*
X98265000Y-102295000D01*
X98595000Y-108835000D02*
X98595000Y-102295000D01*
X98265000Y-108835000D02*
X98595000Y-108835000D01*
X95855000Y-102295000D02*
X96185000Y-102295000D01*
X95855000Y-108835000D02*
X95855000Y-102295000D01*
X96185000Y-108835000D02*
X95855000Y-108835000D01*
X101870000Y-102295000D02*
X101540000Y-102295000D01*
X101870000Y-108835000D02*
X101870000Y-102295000D01*
X101540000Y-108835000D02*
X101870000Y-108835000D01*
X99130000Y-102295000D02*
X99460000Y-102295000D01*
X99130000Y-108835000D02*
X99130000Y-102295000D01*
X99460000Y-108835000D02*
X99130000Y-108835000D01*
X94390000Y-100695000D02*
X94390000Y-100539000D01*
X94390000Y-103011000D02*
X94390000Y-102855000D01*
X91788870Y-100695163D02*
G75*
G02X93870961Y-100695000I1041130J-1079837D01*
G01*
X91788870Y-102854837D02*
G75*
G03X93870961Y-102855000I1041130J1079837D01*
G01*
X91157665Y-100696392D02*
G75*
G02X94390000Y-100539484I1672335J-1078608D01*
G01*
X91157665Y-102853608D02*
G75*
G03X94390000Y-103010516I1672335J1078608D01*
G01*
X94390000Y-95470000D02*
X94390000Y-95314000D01*
X94390000Y-97786000D02*
X94390000Y-97630000D01*
X91788870Y-95470163D02*
G75*
G02X93870961Y-95470000I1041130J-1079837D01*
G01*
X91788870Y-97629837D02*
G75*
G03X93870961Y-97630000I1041130J1079837D01*
G01*
X91157665Y-95471392D02*
G75*
G02X94390000Y-95314484I1672335J-1078608D01*
G01*
X91157665Y-97628608D02*
G75*
G03X94390000Y-97785516I1672335J1078608D01*
G01*
X132070000Y-73005000D02*
X132695000Y-73005000D01*
X129855000Y-73005000D02*
X130480000Y-73005000D01*
X132070000Y-77045000D02*
X132695000Y-77045000D01*
X129855000Y-77045000D02*
X130480000Y-77045000D01*
X132695000Y-77045000D02*
X132695000Y-73005000D01*
X129855000Y-77045000D02*
X129855000Y-73005000D01*
D11*
X103688095Y-73302380D02*
X103688095Y-74111904D01*
X103735714Y-74207142D01*
X103783333Y-74254761D01*
X103878571Y-74302380D01*
X104069047Y-74302380D01*
X104164285Y-74254761D01*
X104211904Y-74207142D01*
X104259523Y-74111904D01*
X104259523Y-73302380D01*
X104688095Y-73397619D02*
X104735714Y-73350000D01*
X104830952Y-73302380D01*
X105069047Y-73302380D01*
X105164285Y-73350000D01*
X105211904Y-73397619D01*
X105259523Y-73492857D01*
X105259523Y-73588095D01*
X105211904Y-73730952D01*
X104640476Y-74302380D01*
X105259523Y-74302380D01*
X97058333Y-111727380D02*
X96725000Y-111251190D01*
X96486904Y-111727380D02*
X96486904Y-110727380D01*
X96867857Y-110727380D01*
X96963095Y-110775000D01*
X97010714Y-110822619D01*
X97058333Y-110917857D01*
X97058333Y-111060714D01*
X97010714Y-111155952D01*
X96963095Y-111203571D01*
X96867857Y-111251190D01*
X96486904Y-111251190D01*
X97439285Y-110822619D02*
X97486904Y-110775000D01*
X97582142Y-110727380D01*
X97820238Y-110727380D01*
X97915476Y-110775000D01*
X97963095Y-110822619D01*
X98010714Y-110917857D01*
X98010714Y-111013095D01*
X97963095Y-111155952D01*
X97391666Y-111727380D01*
X98010714Y-111727380D01*
X100333333Y-111727380D02*
X100000000Y-111251190D01*
X99761904Y-111727380D02*
X99761904Y-110727380D01*
X100142857Y-110727380D01*
X100238095Y-110775000D01*
X100285714Y-110822619D01*
X100333333Y-110917857D01*
X100333333Y-111060714D01*
X100285714Y-111155952D01*
X100238095Y-111203571D01*
X100142857Y-111251190D01*
X99761904Y-111251190D01*
X101285714Y-111727380D02*
X100714285Y-111727380D01*
X101000000Y-111727380D02*
X101000000Y-110727380D01*
X100904761Y-110870238D01*
X100809523Y-110965476D01*
X100714285Y-111013095D01*
X88886904Y-102227380D02*
X88886904Y-101227380D01*
X89125000Y-101227380D01*
X89267857Y-101275000D01*
X89363095Y-101370238D01*
X89410714Y-101465476D01*
X89458333Y-101655952D01*
X89458333Y-101798809D01*
X89410714Y-101989285D01*
X89363095Y-102084523D01*
X89267857Y-102179761D01*
X89125000Y-102227380D01*
X88886904Y-102227380D01*
X89839285Y-101322619D02*
X89886904Y-101275000D01*
X89982142Y-101227380D01*
X90220238Y-101227380D01*
X90315476Y-101275000D01*
X90363095Y-101322619D01*
X90410714Y-101417857D01*
X90410714Y-101513095D01*
X90363095Y-101655952D01*
X89791666Y-102227380D01*
X90410714Y-102227380D01*
X90830000Y-104177380D02*
X91068095Y-105177380D01*
X91258571Y-104463095D01*
X91449047Y-105177380D01*
X91687142Y-104177380D01*
X92639523Y-105177380D02*
X92306190Y-104701190D01*
X92068095Y-105177380D02*
X92068095Y-104177380D01*
X92449047Y-104177380D01*
X92544285Y-104225000D01*
X92591904Y-104272619D01*
X92639523Y-104367857D01*
X92639523Y-104510714D01*
X92591904Y-104605952D01*
X92544285Y-104653571D01*
X92449047Y-104701190D01*
X92068095Y-104701190D01*
X93068095Y-105177380D02*
X93068095Y-104177380D01*
X93401428Y-104177380D02*
X93972857Y-104177380D01*
X93687142Y-105177380D02*
X93687142Y-104177380D01*
X94306190Y-104653571D02*
X94639523Y-104653571D01*
X94782380Y-105177380D02*
X94306190Y-105177380D01*
X94306190Y-104177380D01*
X94782380Y-104177380D01*
X88936904Y-97002380D02*
X88936904Y-96002380D01*
X89175000Y-96002380D01*
X89317857Y-96050000D01*
X89413095Y-96145238D01*
X89460714Y-96240476D01*
X89508333Y-96430952D01*
X89508333Y-96573809D01*
X89460714Y-96764285D01*
X89413095Y-96859523D01*
X89317857Y-96954761D01*
X89175000Y-97002380D01*
X88936904Y-97002380D01*
X90460714Y-97002380D02*
X89889285Y-97002380D01*
X90175000Y-97002380D02*
X90175000Y-96002380D01*
X90079761Y-96145238D01*
X89984523Y-96240476D01*
X89889285Y-96288095D01*
X91758571Y-94042380D02*
X91425238Y-93566190D01*
X91187142Y-94042380D02*
X91187142Y-93042380D01*
X91568095Y-93042380D01*
X91663333Y-93090000D01*
X91710952Y-93137619D01*
X91758571Y-93232857D01*
X91758571Y-93375714D01*
X91710952Y-93470952D01*
X91663333Y-93518571D01*
X91568095Y-93566190D01*
X91187142Y-93566190D01*
X92187142Y-93518571D02*
X92520476Y-93518571D01*
X92663333Y-94042380D02*
X92187142Y-94042380D01*
X92187142Y-93042380D01*
X92663333Y-93042380D01*
X93044285Y-93756666D02*
X93520476Y-93756666D01*
X92949047Y-94042380D02*
X93282380Y-93042380D01*
X93615714Y-94042380D01*
X93949047Y-94042380D02*
X93949047Y-93042380D01*
X94187142Y-93042380D01*
X94329999Y-93090000D01*
X94425238Y-93185238D01*
X94472857Y-93280476D01*
X94520476Y-93470952D01*
X94520476Y-93613809D01*
X94472857Y-93804285D01*
X94425238Y-93899523D01*
X94329999Y-93994761D01*
X94187142Y-94042380D01*
X93949047Y-94042380D01*
X131133333Y-72182142D02*
X131085714Y-72229761D01*
X130942857Y-72277380D01*
X130847619Y-72277380D01*
X130704761Y-72229761D01*
X130609523Y-72134523D01*
X130561904Y-72039285D01*
X130514285Y-71848809D01*
X130514285Y-71705952D01*
X130561904Y-71515476D01*
X130609523Y-71420238D01*
X130704761Y-71325000D01*
X130847619Y-71277380D01*
X130942857Y-71277380D01*
X131085714Y-71325000D01*
X131133333Y-71372619D01*
X132085714Y-72277380D02*
X131514285Y-72277380D01*
X131800000Y-72277380D02*
X131800000Y-71277380D01*
X131704761Y-71420238D01*
X131609523Y-71515476D01*
X131514285Y-71563095D01*
M02*
