M48
; DRILL file {KiCad 5.1.4+dfsg1-2} date jeu. 28 nov. 2019 13:24:10 CET
; FORMAT={-:-/ absolute / metric / decimal}
; #@! TF.CreationDate,2019-11-28T13:24:10+01:00
; #@! TF.GenerationSoftware,Kicad,Pcbnew,5.1.4+dfsg1-2
; #@! TF.FileFunction,Plated,1,2,PTH
FMAT,2
METRIC
T1C0.800
T2C0.900
T3C1.000
%
G90
G05
T1
X97.225Y-101.755
X97.225Y-109.375
X100.5Y-101.755
X100.5Y-109.375
X131.275Y-73.775
X131.275Y-76.275
T2
X91.56Y-96.55
X94.1Y-96.55
X91.56Y-101.775
X94.1Y-101.775
T3
X85.525Y-64.84
X85.525Y-67.38
X85.525Y-69.92
X85.525Y-72.46
X85.525Y-75.0
X85.525Y-77.54
X85.525Y-80.08
X85.525Y-82.62
X85.525Y-85.16
X85.525Y-87.7
X85.525Y-90.24
X85.525Y-92.78
X85.525Y-95.32
X85.525Y-97.86
X85.525Y-100.4
X85.525Y-102.94
X85.525Y-105.48
X85.525Y-108.02
X85.525Y-110.56
X88.065Y-64.84
X88.065Y-67.38
X88.065Y-69.92
X88.065Y-72.46
X88.065Y-75.0
X88.065Y-77.54
X88.065Y-80.08
X88.065Y-82.62
X88.065Y-85.16
X88.065Y-87.7
X88.065Y-90.24
X88.065Y-92.78
X88.065Y-95.32
X88.065Y-97.86
X88.065Y-100.4
X88.065Y-102.94
X88.065Y-105.48
X88.065Y-108.02
X88.065Y-110.56
X146.485Y-64.84
X146.485Y-67.38
X146.485Y-69.92
X146.485Y-72.46
X146.485Y-75.0
X146.485Y-77.54
X146.485Y-80.08
X146.485Y-82.62
X146.485Y-85.16
X146.485Y-87.7
X146.485Y-90.24
X146.485Y-92.78
X146.485Y-95.32
X146.485Y-97.86
X146.485Y-100.4
X146.485Y-102.94
X146.485Y-105.48
X146.485Y-108.02
X146.485Y-110.56
X149.025Y-64.84
X149.025Y-67.38
X149.025Y-69.92
X149.025Y-72.46
X149.025Y-75.0
X149.025Y-77.54
X149.025Y-80.08
X149.025Y-82.62
X149.025Y-85.16
X149.025Y-87.7
X149.025Y-90.24
X149.025Y-92.78
X149.025Y-95.32
X149.025Y-97.86
X149.025Y-100.4
X149.025Y-102.94
X149.025Y-105.48
X149.025Y-108.02
X149.025Y-110.56
X110.1Y-76.275
X110.1Y-78.815
X110.1Y-81.355
X110.1Y-83.895
X110.1Y-86.435
X110.1Y-88.975
X110.1Y-91.515
X110.1Y-94.055
X110.1Y-96.595
X110.1Y-99.135
X110.1Y-101.675
X110.1Y-104.215
X110.1Y-106.755
X110.1Y-109.295
X110.1Y-111.835
X110.1Y-114.375
X125.34Y-76.275
X125.34Y-78.815
X125.34Y-81.355
X125.34Y-83.895
X125.34Y-86.435
X125.34Y-88.975
X125.34Y-91.515
X125.34Y-94.055
X125.34Y-96.595
X125.34Y-99.135
X125.34Y-101.675
X125.34Y-104.215
X125.34Y-106.755
X125.34Y-109.295
X125.34Y-111.835
X125.34Y-114.375
T0
M30
